<svg width="75" height="24" viewBox="0 0 91 29" fill="none" xmlns="http://www.w3.org/2000/svg">
<path d="M90.3032 1.07804C90.934 1.39079 91.187 2.14428 90.8508 2.75184C86.5207 10.5768 80.1259 17.1409 72.3187 21.758C64.1459 26.5914 54.7509 29.0988 45.1947 28.997C35.6384 28.8952 26.3017 26.1883 18.239 21.182C10.537 16.3996 4.29061 9.7009 0.136641 1.78553C-0.185885 1.17096 0.0838776 0.423042 0.72159 0.123798C1.3593 -0.175446 2.1234 0.0873489 2.44675 0.701504C6.39307 8.19686 12.3159 14.5404 19.6148 19.0725C27.2744 23.8285 36.1442 26.4001 45.2226 26.4968C54.3011 26.5935 63.2263 24.2115 70.9905 19.6198C78.3891 15.2443 84.4524 9.02837 88.5655 1.61886C88.9025 1.01174 89.6723 0.765284 90.3032 1.07804Z" fill="url(#paint0_linear_119_142)"/>
<defs>
<linearGradient id="paint0_linear_119_142" x1="-1.73885" y1="1.64957" x2="87.3142" y2="4.14355" gradientUnits="userSpaceOnUse">
<stop stop-color="#0576C8"/>
<stop offset="0.46" stop-color="#87EBFD"/>
<stop offset="0.89" stop-color="#54C7DB"/>
</linearGradient>
</defs>
</svg>
