<svg width="377" height="155" viewBox="0 0 377 155" fill="none" xmlns="http://www.w3.org/2000/svg">
<g clip-path="url(#clip0_254_2832)">
<path d="M0.408 33.916C1.08533 33.372 1.616 32.9267 2 32.58C2.384 32.228 2.70667 31.8627 2.968 31.484C3.23467 31.1 3.368 30.724 3.368 30.356C3.368 30.0093 3.28267 29.7373 3.112 29.54C2.94667 29.3373 2.67733 29.236 2.304 29.236C1.94133 29.236 1.65867 29.3507 1.456 29.58C1.25867 29.804 1.152 30.1053 1.136 30.484H0.432C0.453333 29.8867 0.634667 29.4253 0.976 29.1C1.31733 28.7747 1.75733 28.612 2.296 28.612C2.84533 28.612 3.28 28.764 3.6 29.068C3.92533 29.372 4.088 29.7907 4.088 30.324C4.088 30.7667 3.95467 31.1987 3.688 31.62C3.42667 32.036 3.128 32.404 2.792 32.724C2.456 33.0387 2.02667 33.4067 1.504 33.828H4.256V34.436H0.408V33.916ZM8.78556 29.348H5.97756V31.172C6.10023 31.0013 6.28156 30.8627 6.52156 30.756C6.76156 30.644 7.02023 30.588 7.29756 30.588C7.74023 30.588 8.10023 30.6813 8.37756 30.868C8.6549 31.0493 8.85223 31.2867 8.96956 31.58C9.09223 31.868 9.15356 32.1747 9.15356 32.5C9.15356 32.884 9.08156 33.228 8.93756 33.532C8.79356 33.836 8.57223 34.076 8.27356 34.252C7.98023 34.428 7.6149 34.516 7.17756 34.516C6.61756 34.516 6.16423 34.372 5.81756 34.084C5.4709 33.796 5.26023 33.412 5.18556 32.932H5.89756C5.9669 33.236 6.11356 33.4733 6.33756 33.644C6.56156 33.8147 6.84423 33.9 7.18556 33.9C7.6069 33.9 7.92423 33.7747 8.13756 33.524C8.3509 33.268 8.45756 32.932 8.45756 32.516C8.45756 32.1 8.3509 31.78 8.13756 31.556C7.92423 31.3267 7.60956 31.212 7.19356 31.212C6.9109 31.212 6.6629 31.2813 6.44956 31.42C6.24156 31.5533 6.08956 31.7373 5.99356 31.972H5.30556V28.708H8.78556V29.348ZM10.121 31.548C10.121 30.6307 10.2703 29.916 10.569 29.404C10.8677 28.8867 11.3903 28.628 12.137 28.628C12.8783 28.628 13.3983 28.8867 13.697 29.404C13.9957 29.916 14.145 30.6307 14.145 31.548C14.145 32.4813 13.9957 33.2067 13.697 33.724C13.3983 34.2413 12.8783 34.5 12.137 34.5C11.3903 34.5 10.8677 34.2413 10.569 33.724C10.2703 33.2067 10.121 32.4813 10.121 31.548ZM13.425 31.548C13.425 31.084 13.393 30.692 13.329 30.372C13.2703 30.0467 13.145 29.7853 12.953 29.588C12.7663 29.3907 12.4943 29.292 12.137 29.292C11.7743 29.292 11.497 29.3907 11.305 29.588C11.1183 29.7853 10.993 30.0467 10.929 30.372C10.8703 30.692 10.841 31.084 10.841 31.548C10.841 32.028 10.8703 32.4307 10.929 32.756C10.993 33.0813 11.1183 33.3427 11.305 33.54C11.497 33.7373 11.7743 33.836 12.137 33.836C12.4943 33.836 12.7663 33.7373 12.953 33.54C13.145 33.3427 13.2703 33.0813 13.329 32.756C13.393 32.4307 13.425 32.028 13.425 31.548ZM15.1444 31.548C15.1444 30.6307 15.2938 29.916 15.5924 29.404C15.8911 28.8867 16.4138 28.628 17.1604 28.628C17.9018 28.628 18.4218 28.8867 18.7204 29.404C19.0191 29.916 19.1684 30.6307 19.1684 31.548C19.1684 32.4813 19.0191 33.2067 18.7204 33.724C18.4218 34.2413 17.9018 34.5 17.1604 34.5C16.4138 34.5 15.8911 34.2413 15.5924 33.724C15.2938 33.2067 15.1444 32.4813 15.1444 31.548ZM18.4484 31.548C18.4484 31.084 18.4164 30.692 18.3524 30.372C18.2938 30.0467 18.1684 29.7853 17.9764 29.588C17.7898 29.3907 17.5178 29.292 17.1604 29.292C16.7978 29.292 16.5204 29.3907 16.3284 29.588C16.1418 29.7853 16.0164 30.0467 15.9524 30.372C15.8938 30.692 15.8644 31.084 15.8644 31.548C15.8644 32.028 15.8938 32.4307 15.9524 32.756C16.0164 33.0813 16.1418 33.3427 16.3284 33.54C16.5204 33.7373 16.7978 33.836 17.1604 33.836C17.5178 33.836 17.7898 33.7373 17.9764 33.54C18.1684 33.3427 18.2938 33.0813 18.3524 32.756C18.4164 32.4307 18.4484 32.028 18.4484 31.548Z" fill="#B7BFC2"/>
<path d="M0.304 56.38V55.716H1.808V61.5H1.072V56.38H0.304ZM3.0585 58.548C3.0585 57.6307 3.20783 56.916 3.5065 56.404C3.80517 55.8867 4.32783 55.628 5.0745 55.628C5.81583 55.628 6.33583 55.8867 6.6345 56.404C6.93317 56.916 7.0825 57.6307 7.0825 58.548C7.0825 59.4813 6.93317 60.2067 6.6345 60.724C6.33583 61.2413 5.81583 61.5 5.0745 61.5C4.32783 61.5 3.80517 61.2413 3.5065 60.724C3.20783 60.2067 3.0585 59.4813 3.0585 58.548ZM6.3625 58.548C6.3625 58.084 6.3305 57.692 6.2665 57.372C6.20783 57.0467 6.0825 56.7853 5.8905 56.588C5.70383 56.3907 5.43183 56.292 5.0745 56.292C4.71183 56.292 4.4345 56.3907 4.2425 56.588C4.05583 56.7853 3.9305 57.0467 3.8665 57.372C3.80783 57.692 3.7785 58.084 3.7785 58.548C3.7785 59.028 3.80783 59.4307 3.8665 59.756C3.9305 60.0813 4.05583 60.3427 4.2425 60.54C4.4345 60.7373 4.71183 60.836 5.0745 60.836C5.43183 60.836 5.70383 60.7373 5.8905 60.54C6.0825 60.3427 6.20783 60.0813 6.2665 59.756C6.3305 59.4307 6.3625 59.028 6.3625 58.548ZM8.08194 58.548C8.08194 57.6307 8.23127 56.916 8.52994 56.404C8.8286 55.8867 9.35127 55.628 10.0979 55.628C10.8393 55.628 11.3593 55.8867 11.6579 56.404C11.9566 56.916 12.1059 57.6307 12.1059 58.548C12.1059 59.4813 11.9566 60.2067 11.6579 60.724C11.3593 61.2413 10.8393 61.5 10.0979 61.5C9.35127 61.5 8.8286 61.2413 8.52994 60.724C8.23127 60.2067 8.08194 59.4813 8.08194 58.548ZM11.3859 58.548C11.3859 58.084 11.3539 57.692 11.2899 57.372C11.2313 57.0467 11.1059 56.7853 10.9139 56.588C10.7273 56.3907 10.4553 56.292 10.0979 56.292C9.73527 56.292 9.45794 56.3907 9.26594 56.588C9.07927 56.7853 8.95394 57.0467 8.88994 57.372C8.83127 57.692 8.80194 58.084 8.80194 58.548C8.80194 59.028 8.83127 59.4307 8.88994 59.756C8.95394 60.0813 9.07927 60.3427 9.26594 60.54C9.45794 60.7373 9.73527 60.836 10.0979 60.836C10.4553 60.836 10.7273 60.7373 10.9139 60.54C11.1059 60.3427 11.2313 60.0813 11.2899 59.756C11.3539 59.4307 11.3859 59.028 11.3859 58.548ZM13.1054 58.548C13.1054 57.6307 13.2547 56.916 13.5534 56.404C13.852 55.8867 14.3747 55.628 15.1214 55.628C15.8627 55.628 16.3827 55.8867 16.6814 56.404C16.98 56.916 17.1294 57.6307 17.1294 58.548C17.1294 59.4813 16.98 60.2067 16.6814 60.724C16.3827 61.2413 15.8627 61.5 15.1214 61.5C14.3747 61.5 13.852 61.2413 13.5534 60.724C13.2547 60.2067 13.1054 59.4813 13.1054 58.548ZM16.4094 58.548C16.4094 58.084 16.3774 57.692 16.3134 57.372C16.2547 57.0467 16.1294 56.7853 15.9374 56.588C15.7507 56.3907 15.4787 56.292 15.1214 56.292C14.7587 56.292 14.4814 56.3907 14.2894 56.588C14.1027 56.7853 13.9774 57.0467 13.9134 57.372C13.8547 57.692 13.8254 58.084 13.8254 58.548C13.8254 59.028 13.8547 59.4307 13.9134 59.756C13.9774 60.0813 14.1027 60.3427 14.2894 60.54C14.4814 60.7373 14.7587 60.836 15.1214 60.836C15.4787 60.836 15.7507 60.7373 15.9374 60.54C16.1294 60.3427 16.2547 60.0813 16.3134 59.756C16.3774 59.4307 16.4094 59.028 16.4094 58.548Z" fill="#B7BFC2"/>
<path d="M4.184 83.348H1.376V85.172C1.49867 85.0013 1.68 84.8627 1.92 84.756C2.16 84.644 2.41867 84.588 2.696 84.588C3.13867 84.588 3.49867 84.6813 3.776 84.868C4.05333 85.0493 4.25067 85.2867 4.368 85.58C4.49067 85.868 4.552 86.1747 4.552 86.5C4.552 86.884 4.48 87.228 4.336 87.532C4.192 87.836 3.97067 88.076 3.672 88.252C3.37867 88.428 3.01333 88.516 2.576 88.516C2.016 88.516 1.56267 88.372 1.216 88.084C0.869333 87.796 0.658667 87.412 0.584 86.932H1.296C1.36533 87.236 1.512 87.4733 1.736 87.644C1.96 87.8147 2.24267 87.9 2.584 87.9C3.00533 87.9 3.32267 87.7747 3.536 87.524C3.74933 87.268 3.856 86.932 3.856 86.516C3.856 86.1 3.74933 85.78 3.536 85.556C3.32267 85.3267 3.008 85.212 2.592 85.212C2.30933 85.212 2.06133 85.2813 1.848 85.42C1.64 85.5533 1.488 85.7373 1.392 85.972H0.704V82.708H4.184V83.348ZM5.51944 85.548C5.51944 84.6307 5.66877 83.916 5.96744 83.404C6.2661 82.8867 6.78877 82.628 7.53544 82.628C8.27677 82.628 8.79677 82.8867 9.09544 83.404C9.3941 83.916 9.54344 84.6307 9.54344 85.548C9.54344 86.4813 9.3941 87.2067 9.09544 87.724C8.79677 88.2413 8.27677 88.5 7.53544 88.5C6.78877 88.5 6.2661 88.2413 5.96744 87.724C5.66877 87.2067 5.51944 86.4813 5.51944 85.548ZM8.82344 85.548C8.82344 85.084 8.79144 84.692 8.72744 84.372C8.66877 84.0467 8.54344 83.7853 8.35144 83.588C8.16477 83.3907 7.89277 83.292 7.53544 83.292C7.17277 83.292 6.89544 83.3907 6.70344 83.588C6.51677 83.7853 6.39144 84.0467 6.32744 84.372C6.26877 84.692 6.23944 85.084 6.23944 85.548C6.23944 86.028 6.26877 86.4307 6.32744 86.756C6.39144 87.0813 6.51677 87.3427 6.70344 87.54C6.89544 87.7373 7.17277 87.836 7.53544 87.836C7.89277 87.836 8.16477 87.7373 8.35144 87.54C8.54344 87.3427 8.66877 87.0813 8.72744 86.756C8.79144 86.4307 8.82344 86.028 8.82344 85.548ZM10.5429 85.548C10.5429 84.6307 10.6922 83.916 10.9909 83.404C11.2895 82.8867 11.8122 82.628 12.5589 82.628C13.3002 82.628 13.8202 82.8867 14.1189 83.404C14.4175 83.916 14.5669 84.6307 14.5669 85.548C14.5669 86.4813 14.4175 87.2067 14.1189 87.724C13.8202 88.2413 13.3002 88.5 12.5589 88.5C11.8122 88.5 11.2895 88.2413 10.9909 87.724C10.6922 87.2067 10.5429 86.4813 10.5429 85.548ZM13.8469 85.548C13.8469 85.084 13.8149 84.692 13.7509 84.372C13.6922 84.0467 13.5669 83.7853 13.3749 83.588C13.1882 83.3907 12.9162 83.292 12.5589 83.292C12.1962 83.292 11.9189 83.3907 11.7269 83.588C11.5402 83.7853 11.4149 84.0467 11.3509 84.372C11.2922 84.692 11.2629 85.084 11.2629 85.548C11.2629 86.028 11.2922 86.4307 11.3509 86.756C11.4149 87.0813 11.5402 87.3427 11.7269 87.54C11.9189 87.7373 12.1962 87.836 12.5589 87.836C12.9162 87.836 13.1882 87.7373 13.3749 87.54C13.5669 87.3427 13.6922 87.0813 13.7509 86.756C13.8149 86.4307 13.8469 86.028 13.8469 85.548Z" fill="#B7BFC2"/>
<path d="M0.304 110.38V109.716H1.808V115.5H1.072V110.38H0.304ZM3.0585 112.548C3.0585 111.631 3.20783 110.916 3.5065 110.404C3.80517 109.887 4.32783 109.628 5.0745 109.628C5.81583 109.628 6.33583 109.887 6.6345 110.404C6.93317 110.916 7.0825 111.631 7.0825 112.548C7.0825 113.481 6.93317 114.207 6.6345 114.724C6.33583 115.241 5.81583 115.5 5.0745 115.5C4.32783 115.5 3.80517 115.241 3.5065 114.724C3.20783 114.207 3.0585 113.481 3.0585 112.548ZM6.3625 112.548C6.3625 112.084 6.3305 111.692 6.2665 111.372C6.20783 111.047 6.0825 110.785 5.8905 110.588C5.70383 110.391 5.43183 110.292 5.0745 110.292C4.71183 110.292 4.4345 110.391 4.2425 110.588C4.05583 110.785 3.9305 111.047 3.8665 111.372C3.80783 111.692 3.7785 112.084 3.7785 112.548C3.7785 113.028 3.80783 113.431 3.8665 113.756C3.9305 114.081 4.05583 114.343 4.2425 114.54C4.4345 114.737 4.71183 114.836 5.0745 114.836C5.43183 114.836 5.70383 114.737 5.8905 114.54C6.0825 114.343 6.20783 114.081 6.2665 113.756C6.3305 113.431 6.3625 113.028 6.3625 112.548ZM8.08194 112.548C8.08194 111.631 8.23127 110.916 8.52994 110.404C8.8286 109.887 9.35127 109.628 10.0979 109.628C10.8393 109.628 11.3593 109.887 11.6579 110.404C11.9566 110.916 12.1059 111.631 12.1059 112.548C12.1059 113.481 11.9566 114.207 11.6579 114.724C11.3593 115.241 10.8393 115.5 10.0979 115.5C9.35127 115.5 8.8286 115.241 8.52994 114.724C8.23127 114.207 8.08194 113.481 8.08194 112.548ZM11.3859 112.548C11.3859 112.084 11.3539 111.692 11.2899 111.372C11.2313 111.047 11.1059 110.785 10.9139 110.588C10.7273 110.391 10.4553 110.292 10.0979 110.292C9.73527 110.292 9.45794 110.391 9.26594 110.588C9.07927 110.785 8.95394 111.047 8.88994 111.372C8.83127 111.692 8.80194 112.084 8.80194 112.548C8.80194 113.028 8.83127 113.431 8.88994 113.756C8.95394 114.081 9.07927 114.343 9.26594 114.54C9.45794 114.737 9.73527 114.836 10.0979 114.836C10.4553 114.836 10.7273 114.737 10.9139 114.54C11.1059 114.343 11.2313 114.081 11.2899 113.756C11.3539 113.431 11.3859 113.028 11.3859 112.548Z" fill="#B7BFC2"/>
<path d="M0.496 139.548C0.496 138.631 0.645333 137.916 0.944 137.404C1.24267 136.887 1.76533 136.628 2.512 136.628C3.25333 136.628 3.77333 136.887 4.072 137.404C4.37067 137.916 4.52 138.631 4.52 139.548C4.52 140.481 4.37067 141.207 4.072 141.724C3.77333 142.241 3.25333 142.5 2.512 142.5C1.76533 142.5 1.24267 142.241 0.944 141.724C0.645333 141.207 0.496 140.481 0.496 139.548ZM3.8 139.548C3.8 139.084 3.768 138.692 3.704 138.372C3.64533 138.047 3.52 137.785 3.328 137.588C3.14133 137.391 2.86933 137.292 2.512 137.292C2.14933 137.292 1.872 137.391 1.68 137.588C1.49333 137.785 1.368 138.047 1.304 138.372C1.24533 138.692 1.216 139.084 1.216 139.548C1.216 140.028 1.24533 140.431 1.304 140.756C1.368 141.081 1.49333 141.343 1.68 141.54C1.872 141.737 2.14933 141.836 2.512 141.836C2.86933 141.836 3.14133 141.737 3.328 141.54C3.52 141.343 3.64533 141.081 3.704 140.756C3.768 140.431 3.8 140.028 3.8 139.548Z" fill="#B7BFC2"/>
<rect x="28" y="26.5" width="6" height="119" fill="#D8DCDE"/>
<path d="M45 95.5C45 94.9477 45.4477 94.5 46 94.5H60C60.5523 94.5 61 94.9477 61 95.5V135.5H45V95.5Z" fill="#BBA2B8"/>
<rect x="52" y="139.5" width="2" height="8" fill="#B7BFC2"/>
<path d="M75 32.5C75 31.9477 75.4477 31.5 76 31.5H90C90.5523 31.5 91 31.9477 91 32.5V135.5H75V32.5Z" fill="#BBA2B8"/>
<path d="M80.908 145.916C81.5853 145.372 82.116 144.927 82.5 144.58C82.884 144.228 83.2067 143.863 83.468 143.484C83.7347 143.1 83.868 142.724 83.868 142.356C83.868 142.009 83.7827 141.737 83.612 141.54C83.4467 141.337 83.1773 141.236 82.804 141.236C82.4413 141.236 82.1587 141.351 81.956 141.58C81.7587 141.804 81.652 142.105 81.636 142.484H80.932C80.9533 141.887 81.1347 141.425 81.476 141.1C81.8173 140.775 82.2573 140.612 82.796 140.612C83.3453 140.612 83.78 140.764 84.1 141.068C84.4253 141.372 84.588 141.791 84.588 142.324C84.588 142.767 84.4547 143.199 84.188 143.62C83.9267 144.036 83.628 144.404 83.292 144.724C82.956 145.039 82.5267 145.407 82.004 145.828H84.756V146.436H80.908V145.916Z" fill="#B7BFC2"/>
<path d="M105 54.5C105 53.9477 105.448 53.5 106 53.5H120C120.552 53.5 121 53.9477 121 54.5V135.5H105V54.5Z" fill="#BBA2B8"/>
<rect x="112" y="139.5" width="2" height="8" fill="#B7BFC2"/>
<path d="M135 87.5C135 86.9477 135.448 86.5 136 86.5H150C150.552 86.5 151 86.9477 151 87.5V135.5H135V87.5Z" fill="#BBA2B8"/>
<path d="M140.32 146.212V145.66L143.128 141.772H144V145.58H144.8V146.212H144V147.5H143.28V146.212H140.32ZM143.312 142.532L141.16 145.58H143.312V142.532Z" fill="#B7BFC2"/>
<path d="M165 54.5C165 53.9477 165.448 53.5 166 53.5H180C180.552 53.5 181 53.9477 181 54.5V135.5H165V54.5Z" fill="#BBA2B8"/>
<rect x="172" y="139.5" width="2" height="8" fill="#B7BFC2"/>
<path d="M192.284 2.204C192.31 1.67067 192.497 1.26 192.844 0.972C193.196 0.678666 193.657 0.532 194.228 0.532C194.617 0.532 194.95 0.601333 195.228 0.74C195.505 0.873333 195.713 1.05733 195.852 1.292C195.996 1.52133 196.068 1.78267 196.068 2.076C196.068 2.412 195.98 2.69733 195.804 2.932C195.633 3.16133 195.428 3.316 195.188 3.396V3.428C195.497 3.524 195.737 3.69467 195.908 3.94C196.084 4.18533 196.172 4.5 196.172 4.884C196.172 5.204 196.097 5.48933 195.948 5.74C195.804 5.99067 195.588 6.188 195.3 6.332C195.017 6.47067 194.676 6.54 194.276 6.54C193.673 6.54 193.182 6.388 192.804 6.084C192.425 5.78 192.225 5.332 192.204 4.74H193.292C193.302 5.00133 193.39 5.212 193.556 5.372C193.726 5.52667 193.958 5.604 194.252 5.604C194.524 5.604 194.732 5.52933 194.876 5.38C195.025 5.22533 195.1 5.028 195.1 4.788C195.1 4.468 194.998 4.23867 194.796 4.1C194.593 3.96133 194.278 3.892 193.852 3.892H193.62V2.972H193.852C194.609 2.972 194.988 2.71867 194.988 2.212C194.988 1.98267 194.918 1.804 194.78 1.676C194.646 1.548 194.452 1.484 194.196 1.484C193.945 1.484 193.75 1.55333 193.612 1.692C193.478 1.82533 193.401 1.996 193.38 2.204H192.284ZM198.409 5.324L197.473 7.572H196.753L197.273 5.324H198.409ZM203.008 1.636H200.416V3.004C200.528 2.86533 200.688 2.75333 200.896 2.668C201.104 2.57733 201.325 2.532 201.56 2.532C201.987 2.532 202.336 2.62533 202.608 2.812C202.88 2.99867 203.077 3.23867 203.2 3.532C203.323 3.82 203.384 4.12933 203.384 4.46C203.384 5.07333 203.208 5.56667 202.856 5.94C202.509 6.31333 202.013 6.5 201.368 6.5C200.76 6.5 200.275 6.348 199.912 6.044C199.549 5.74 199.344 5.34267 199.296 4.852H200.384C200.432 5.06533 200.539 5.236 200.704 5.364C200.875 5.492 201.091 5.556 201.352 5.556C201.667 5.556 201.904 5.45733 202.064 5.26C202.224 5.06267 202.304 4.80133 202.304 4.476C202.304 4.14533 202.221 3.89467 202.056 3.724C201.896 3.548 201.659 3.46 201.344 3.46C201.12 3.46 200.933 3.516 200.784 3.628C200.635 3.74 200.528 3.88933 200.464 4.076H199.392V0.652H203.008V1.636ZM204.237 3.508C204.237 2.58533 204.402 1.86267 204.733 1.34C205.069 0.817333 205.623 0.556 206.397 0.556C207.17 0.556 207.722 0.817333 208.053 1.34C208.389 1.86267 208.557 2.58533 208.557 3.508C208.557 4.436 208.389 5.164 208.053 5.692C207.722 6.22 207.17 6.484 206.397 6.484C205.623 6.484 205.069 6.22 204.733 5.692C204.402 5.164 204.237 4.436 204.237 3.508ZM207.453 3.508C207.453 3.11333 207.426 2.78267 207.373 2.516C207.325 2.244 207.223 2.02267 207.069 1.852C206.919 1.68133 206.695 1.596 206.397 1.596C206.098 1.596 205.871 1.68133 205.717 1.852C205.567 2.02267 205.466 2.244 205.413 2.516C205.365 2.78267 205.341 3.11333 205.341 3.508C205.341 3.91333 205.365 4.25467 205.413 4.532C205.461 4.804 205.562 5.02533 205.717 5.196C205.871 5.36133 206.098 5.444 206.397 5.444C206.695 5.444 206.922 5.36133 207.077 5.196C207.231 5.02533 207.333 4.804 207.381 4.532C207.429 4.25467 207.453 3.91333 207.453 3.508ZM209.408 3.508C209.408 2.58533 209.574 1.86267 209.904 1.34C210.24 0.817333 210.795 0.556 211.568 0.556C212.342 0.556 212.894 0.817333 213.224 1.34C213.56 1.86267 213.728 2.58533 213.728 3.508C213.728 4.436 213.56 5.164 213.224 5.692C212.894 6.22 212.342 6.484 211.568 6.484C210.795 6.484 210.24 6.22 209.904 5.692C209.574 5.164 209.408 4.436 209.408 3.508ZM212.624 3.508C212.624 3.11333 212.598 2.78267 212.544 2.516C212.496 2.244 212.395 2.02267 212.24 1.852C212.091 1.68133 211.867 1.596 211.568 1.596C211.27 1.596 211.043 1.68133 210.888 1.852C210.739 2.02267 210.638 2.244 210.584 2.516C210.536 2.78267 210.512 3.11333 210.512 3.508C210.512 3.91333 210.536 4.25467 210.584 4.532C210.632 4.804 210.734 5.02533 210.888 5.196C211.043 5.36133 211.27 5.444 211.568 5.444C211.867 5.444 212.094 5.36133 212.248 5.196C212.403 5.02533 212.504 4.804 212.552 4.532C212.6 4.25467 212.624 3.91333 212.624 3.508Z" fill="#FF7FC1"/>
<path d="M195 12.5C195 11.9477 195.448 11.5 196 11.5H210C210.552 11.5 211 11.9477 211 12.5V135.5H195V12.5Z" fill="#FF7FC1"/>
<path d="M203.72 143.092C203.603 142.5 203.237 142.204 202.624 142.204C202.149 142.204 201.795 142.388 201.56 142.756C201.325 143.119 201.211 143.719 201.216 144.556C201.339 144.279 201.541 144.063 201.824 143.908C202.112 143.748 202.432 143.668 202.784 143.668C203.333 143.668 203.771 143.839 204.096 144.18C204.427 144.521 204.592 144.993 204.592 145.596C204.592 145.959 204.52 146.284 204.376 146.572C204.237 146.86 204.024 147.089 203.736 147.26C203.453 147.431 203.109 147.516 202.704 147.516C202.155 147.516 201.725 147.393 201.416 147.148C201.107 146.903 200.891 146.564 200.768 146.132C200.645 145.7 200.584 145.167 200.584 144.532C200.584 142.575 201.267 141.596 202.632 141.596C203.155 141.596 203.565 141.737 203.864 142.02C204.163 142.303 204.339 142.66 204.392 143.092H203.72ZM202.632 144.284C202.403 144.284 202.187 144.332 201.984 144.428C201.781 144.519 201.616 144.66 201.488 144.852C201.365 145.039 201.304 145.268 201.304 145.54C201.304 145.945 201.421 146.276 201.656 146.532C201.891 146.783 202.227 146.908 202.664 146.908C203.037 146.908 203.333 146.793 203.552 146.564C203.776 146.329 203.888 146.015 203.888 145.62C203.888 145.204 203.781 144.879 203.568 144.644C203.355 144.404 203.043 144.284 202.632 144.284Z" fill="#B7BFC2"/>
<path d="M225 54.5C225 53.9477 225.448 53.5 226 53.5H240C240.552 53.5 241 53.9477 241 54.5V135.5H225V54.5Z" fill="#BBA2B8"/>
<rect x="232" y="139.5" width="2" height="8" fill="#B7BFC2"/>
<path d="M255 31.5C255 30.9477 255.448 30.5 256 30.5H270C270.552 30.5 271 30.9477 271 31.5V135.5H255V31.5Z" fill="#BBA2B8"/>
<path d="M262.052 144.492C261.753 144.375 261.524 144.204 261.364 143.98C261.204 143.756 261.124 143.484 261.124 143.164C261.124 142.876 261.196 142.617 261.34 142.388C261.484 142.153 261.697 141.969 261.98 141.836C262.268 141.697 262.615 141.628 263.02 141.628C263.425 141.628 263.769 141.697 264.052 141.836C264.34 141.969 264.556 142.153 264.7 142.388C264.849 142.617 264.924 142.876 264.924 143.164C264.924 143.473 264.841 143.745 264.676 143.98C264.511 144.209 264.284 144.38 263.996 144.492C264.327 144.593 264.588 144.772 264.78 145.028C264.977 145.279 265.076 145.583 265.076 145.94C265.076 146.287 264.991 146.591 264.82 146.852C264.649 147.108 264.407 147.308 264.092 147.452C263.783 147.591 263.425 147.66 263.02 147.66C262.615 147.66 262.257 147.591 261.948 147.452C261.644 147.308 261.407 147.108 261.236 146.852C261.065 146.591 260.98 146.287 260.98 145.94C260.98 145.583 261.076 145.276 261.268 145.02C261.46 144.764 261.721 144.588 262.052 144.492ZM264.22 143.252C264.22 142.927 264.113 142.676 263.9 142.5C263.687 142.324 263.393 142.236 263.02 142.236C262.652 142.236 262.361 142.324 262.148 142.5C261.935 142.676 261.828 142.929 261.828 143.26C261.828 143.559 261.937 143.799 262.156 143.98C262.38 144.161 262.668 144.252 263.02 144.252C263.377 144.252 263.665 144.161 263.884 143.98C264.108 143.793 264.22 143.551 264.22 143.252ZM263.02 144.812C262.625 144.812 262.303 144.905 262.052 145.092C261.801 145.273 261.676 145.548 261.676 145.916C261.676 146.257 261.796 146.532 262.036 146.74C262.281 146.948 262.609 147.052 263.02 147.052C263.431 147.052 263.756 146.948 263.996 146.74C264.236 146.532 264.356 146.257 264.356 145.916C264.356 145.559 264.233 145.287 263.988 145.1C263.743 144.908 263.42 144.812 263.02 144.812Z" fill="#B7BFC2"/>
<path d="M285 54.5C285 53.9477 285.448 53.5 286 53.5H300C300.552 53.5 301 53.9477 301 54.5V135.5H285V54.5Z" fill="#BBA2B8"/>
<rect x="292" y="139.5" width="2" height="8" fill="#B7BFC2"/>
<path d="M315 40.5C315 39.9477 315.448 39.5 316 39.5H330C330.552 39.5 331 39.9477 331 40.5V135.5H315V40.5Z" fill="#BBA2B8"/>
<path d="M321.932 145.948C321.985 146.252 322.108 146.487 322.3 146.652C322.497 146.817 322.761 146.9 323.092 146.9C323.535 146.9 323.86 146.727 324.068 146.38C324.281 146.033 324.383 145.449 324.372 144.628C324.26 144.868 324.073 145.057 323.812 145.196C323.551 145.329 323.26 145.396 322.94 145.396C322.583 145.396 322.263 145.324 321.98 145.18C321.703 145.031 321.484 144.815 321.324 144.532C321.164 144.249 321.084 143.908 321.084 143.508C321.084 142.937 321.249 142.479 321.58 142.132C321.911 141.78 322.38 141.604 322.988 141.604C323.735 141.604 324.257 141.847 324.556 142.332C324.86 142.817 325.012 143.54 325.012 144.5C325.012 145.172 324.951 145.727 324.828 146.164C324.711 146.601 324.508 146.935 324.22 147.164C323.937 147.393 323.548 147.508 323.052 147.508C322.508 147.508 322.084 147.361 321.78 147.068C321.476 146.775 321.303 146.401 321.26 145.948H321.932ZM323.06 144.78C323.417 144.78 323.711 144.671 323.94 144.452C324.169 144.228 324.284 143.927 324.284 143.548C324.284 143.148 324.172 142.825 323.948 142.58C323.724 142.335 323.409 142.212 323.004 142.212C322.631 142.212 322.332 142.329 322.108 142.564C321.889 142.799 321.78 143.108 321.78 143.492C321.78 143.881 321.889 144.193 322.108 144.428C322.327 144.663 322.644 144.78 323.06 144.78Z" fill="#B7BFC2"/>
<path d="M345 99.5C345 98.9477 345.448 98.5 346 98.5H360C360.552 98.5 361 98.9477 361 99.5V135.5H345V99.5Z" fill="#BBA2B8"/>
<rect x="352" y="139.5" width="2" height="8" fill="#B7BFC2"/>
</g>
<defs>
<clipPath id="clip0_254_2832">
<rect width="377" height="154" fill="white" transform="translate(0 0.5)"/>
</clipPath>
</defs>
</svg>
