<svg width="75" height="24" viewBox="0 0 91 29" fill="none" xmlns="http://www.w3.org/2000/svg">
<path d="M90.3031 27.922C90.934 27.6092 91.187 26.8557 90.8508 26.2482C86.5207 18.4232 80.1259 11.8591 72.3187 7.24197C64.1459 2.40857 54.7509 -0.0988142 45.1947 0.00298068C35.6384 0.104776 26.3017 2.8117 18.239 7.81803C10.537 12.6004 4.29061 19.2991 0.136641 27.2145C-0.185885 27.829 0.0838776 28.577 0.72159 28.8762C1.3593 29.1754 2.1234 28.9126 2.44675 28.2985C6.39307 20.8031 12.3159 14.4596 19.6148 9.9275C27.2744 5.17149 36.1442 2.59991 45.2226 2.5032C54.3011 2.4065 63.2263 4.78852 70.9905 9.38024C78.3891 13.7557 84.4524 19.9716 88.5655 27.3811C88.9025 27.9883 89.6723 28.2347 90.3031 27.922Z" fill="url(#paint0_linear_119_141)"/>
<defs>
<linearGradient id="paint0_linear_119_141" x1="-1.73885" y1="27.3504" x2="87.3142" y2="24.8565" gradientUnits="userSpaceOnUse">
<stop stop-color="#0576C8"/>
<stop offset="0.46" stop-color="#87EBFD"/>
<stop offset="0.89" stop-color="#54C7DB"/>
</linearGradient>
</defs>
</svg>
