<svg width="193" height="140" viewBox="0 0 193 140" fill="none" xmlns="http://www.w3.org/2000/svg">
<g clip-path="url(#clip0_254_2891)">
<rect y="1" width="1" height="120" fill="#D8DCDE"/>
<rect x="1" y="1" width="5" height="1" fill="#D9D9D9"/>
<rect x="1" y="20.8335" width="5" height="1" fill="#D9D9D9"/>
<rect x="1" y="40.6665" width="5" height="1" fill="#D9D9D9"/>
<rect x="1" y="60.5" width="5" height="1" fill="#D9D9D9"/>
<rect x="1" y="80.3335" width="5" height="1" fill="#D9D9D9"/>
<rect x="1" y="100.167" width="5" height="1" fill="#D9D9D9"/>
<rect x="1" y="120" width="5" height="1" fill="#D9D9D9"/>
<path d="M8.306 4.562C8.814 4.154 9.212 3.82 9.5 3.56C9.788 3.296 10.03 3.022 10.226 2.738C10.426 2.45 10.526 2.168 10.526 1.892C10.526 1.632 10.462 1.428 10.334 1.28C10.21 1.128 10.008 1.052 9.728 1.052C9.456 1.052 9.244 1.138 9.092 1.31C8.944 1.478 8.864 1.704 8.852 1.988H8.324C8.34 1.54 8.476 1.194 8.732 0.95C8.988 0.706 9.318 0.584 9.722 0.584C10.134 0.584 10.46 0.698 10.7 0.926C10.944 1.154 11.066 1.468 11.066 1.868C11.066 2.2 10.966 2.524 10.766 2.84C10.57 3.152 10.346 3.428 10.094 3.668C9.842 3.904 9.52 4.18 9.128 4.496H11.192V4.952H8.306V4.562ZM11.7572 4.562C12.2652 4.154 12.6632 3.82 12.9512 3.56C13.2392 3.296 13.4812 3.022 13.6772 2.738C13.8772 2.45 13.9772 2.168 13.9772 1.892C13.9772 1.632 13.9132 1.428 13.7852 1.28C13.6612 1.128 13.4592 1.052 13.1792 1.052C12.9072 1.052 12.6952 1.138 12.5432 1.31C12.3952 1.478 12.3152 1.704 12.3032 1.988H11.7752C11.7912 1.54 11.9272 1.194 12.1832 0.95C12.4392 0.706 12.7692 0.584 13.1732 0.584C13.5852 0.584 13.9112 0.698 14.1512 0.926C14.3952 1.154 14.5172 1.468 14.5172 1.868C14.5172 2.2 14.4172 2.524 14.2172 2.84C14.0212 3.152 13.7972 3.428 13.5452 3.668C13.2932 3.904 12.9712 4.18 12.5792 4.496H14.6432V4.952H11.7572V4.562ZM15.2743 2.786C15.2743 2.098 15.3863 1.562 15.6103 1.178C15.8343 0.79 16.2263 0.596 16.7863 0.596C17.3423 0.596 17.7323 0.79 17.9563 1.178C18.1803 1.562 18.2923 2.098 18.2923 2.786C18.2923 3.486 18.1803 4.03 17.9563 4.418C17.7323 4.806 17.3423 5 16.7863 5C16.2263 5 15.8343 4.806 15.6103 4.418C15.3863 4.03 15.2743 3.486 15.2743 2.786ZM17.7523 2.786C17.7523 2.438 17.7283 2.144 17.6803 1.904C17.6363 1.66 17.5423 1.464 17.3983 1.316C17.2583 1.168 17.0543 1.094 16.7863 1.094C16.5143 1.094 16.3063 1.168 16.1623 1.316C16.0223 1.464 15.9283 1.66 15.8803 1.904C15.8363 2.144 15.8143 2.438 15.8143 2.786C15.8143 3.146 15.8363 3.448 15.8803 3.692C15.9283 3.936 16.0223 4.132 16.1623 4.28C16.3063 4.428 16.5143 4.502 16.7863 4.502C17.0543 4.502 17.2583 4.428 17.3983 4.28C17.5423 4.132 17.6363 3.936 17.6803 3.692C17.7283 3.448 17.7523 3.146 17.7523 2.786Z" fill="#B7BFC2"/>
<path d="M8.306 23.562C8.814 23.154 9.212 22.82 9.5 22.56C9.788 22.296 10.03 22.022 10.226 21.738C10.426 21.45 10.526 21.168 10.526 20.892C10.526 20.632 10.462 20.428 10.334 20.28C10.21 20.128 10.008 20.052 9.728 20.052C9.456 20.052 9.244 20.138 9.092 20.31C8.944 20.478 8.864 20.704 8.852 20.988H8.324C8.34 20.54 8.476 20.194 8.732 19.95C8.988 19.706 9.318 19.584 9.722 19.584C10.134 19.584 10.46 19.698 10.7 19.926C10.944 20.154 11.066 20.468 11.066 20.868C11.066 21.2 10.966 21.524 10.766 21.84C10.57 22.152 10.346 22.428 10.094 22.668C9.842 22.904 9.52 23.18 9.128 23.496H11.192V23.952H8.306V23.562ZM11.8232 21.786C11.8232 21.098 11.9352 20.562 12.1592 20.178C12.3832 19.79 12.7752 19.596 13.3352 19.596C13.8912 19.596 14.2812 19.79 14.5052 20.178C14.7292 20.562 14.8412 21.098 14.8412 21.786C14.8412 22.486 14.7292 23.03 14.5052 23.418C14.2812 23.806 13.8912 24 13.3352 24C12.7752 24 12.3832 23.806 12.1592 23.418C11.9352 23.03 11.8232 22.486 11.8232 21.786ZM14.3012 21.786C14.3012 21.438 14.2772 21.144 14.2292 20.904C14.1852 20.66 14.0912 20.464 13.9472 20.316C13.8072 20.168 13.6032 20.094 13.3352 20.094C13.0632 20.094 12.8552 20.168 12.7112 20.316C12.5712 20.464 12.4772 20.66 12.4292 20.904C12.3852 21.144 12.3632 21.438 12.3632 21.786C12.3632 22.146 12.3852 22.448 12.4292 22.692C12.4772 22.936 12.5712 23.132 12.7112 23.28C12.8552 23.428 13.0632 23.502 13.3352 23.502C13.6032 23.502 13.8072 23.428 13.9472 23.28C14.0912 23.132 14.1852 22.936 14.2292 22.692C14.2772 22.448 14.3012 22.146 14.3012 21.786ZM15.5908 21.786C15.5908 21.098 15.7028 20.562 15.9268 20.178C16.1508 19.79 16.5428 19.596 17.1028 19.596C17.6588 19.596 18.0488 19.79 18.2728 20.178C18.4967 20.562 18.6087 21.098 18.6087 21.786C18.6087 22.486 18.4967 23.03 18.2728 23.418C18.0488 23.806 17.6588 24 17.1028 24C16.5428 24 16.1508 23.806 15.9268 23.418C15.7028 23.03 15.5908 22.486 15.5908 21.786ZM18.0688 21.786C18.0688 21.438 18.0448 21.144 17.9968 20.904C17.9528 20.66 17.8588 20.464 17.7148 20.316C17.5748 20.168 17.3708 20.094 17.1028 20.094C16.8308 20.094 16.6228 20.168 16.4788 20.316C16.3388 20.464 16.2448 20.66 16.1968 20.904C16.1528 21.144 16.1308 21.438 16.1308 21.786C16.1308 22.146 16.1528 22.448 16.1968 22.692C16.2448 22.936 16.3388 23.132 16.4788 23.28C16.6228 23.428 16.8308 23.502 17.1028 23.502C17.3708 23.502 17.5748 23.428 17.7148 23.28C17.8588 23.132 17.9528 22.936 17.9968 22.692C18.0448 22.448 18.0688 22.146 18.0688 21.786Z" fill="#B7BFC2"/>
<path d="M8.228 39.16V38.662H9.356V43H8.804V39.16H8.228ZM11.0859 40.744C10.8619 40.656 10.6899 40.528 10.5699 40.36C10.4499 40.192 10.3899 39.988 10.3899 39.748C10.3899 39.532 10.4439 39.338 10.5519 39.166C10.6599 38.99 10.8199 38.852 11.0319 38.752C11.2479 38.648 11.5079 38.596 11.8119 38.596C12.1159 38.596 12.3739 38.648 12.5859 38.752C12.8019 38.852 12.9639 38.99 13.0719 39.166C13.1839 39.338 13.2399 39.532 13.2399 39.748C13.2399 39.98 13.1779 40.184 13.0539 40.36C12.9299 40.532 12.7599 40.66 12.5439 40.744C12.7919 40.82 12.9879 40.954 13.1319 41.146C13.2799 41.334 13.3539 41.562 13.3539 41.83C13.3539 42.09 13.2899 42.318 13.1619 42.514C13.0339 42.706 12.8519 42.856 12.6159 42.964C12.3839 43.068 12.1159 43.12 11.8119 43.12C11.5079 43.12 11.2399 43.068 11.0079 42.964C10.7799 42.856 10.6019 42.706 10.4739 42.514C10.3459 42.318 10.2819 42.09 10.2819 41.83C10.2819 41.562 10.3539 41.332 10.4979 41.14C10.6419 40.948 10.8379 40.816 11.0859 40.744ZM12.7119 39.814C12.7119 39.57 12.6319 39.382 12.4719 39.25C12.3119 39.118 12.0919 39.052 11.8119 39.052C11.5359 39.052 11.3179 39.118 11.1579 39.25C10.9979 39.382 10.9179 39.572 10.9179 39.82C10.9179 40.044 10.9999 40.224 11.1639 40.36C11.3319 40.496 11.5479 40.564 11.8119 40.564C12.0799 40.564 12.2959 40.496 12.4599 40.36C12.6279 40.22 12.7119 40.038 12.7119 39.814ZM11.8119 40.984C11.5159 40.984 11.2739 41.054 11.0859 41.194C10.8979 41.33 10.8039 41.536 10.8039 41.812C10.8039 42.068 10.8939 42.274 11.0739 42.43C11.2579 42.586 11.5039 42.664 11.8119 42.664C12.1199 42.664 12.3639 42.586 12.5439 42.43C12.7239 42.274 12.8139 42.068 12.8139 41.812C12.8139 41.544 12.7219 41.34 12.5379 41.2C12.3539 41.056 12.1119 40.984 11.8119 40.984ZM14.079 40.786C14.079 40.098 14.191 39.562 14.415 39.178C14.639 38.79 15.031 38.596 15.591 38.596C16.147 38.596 16.537 38.79 16.761 39.178C16.985 39.562 17.097 40.098 17.097 40.786C17.097 41.486 16.985 42.03 16.761 42.418C16.537 42.806 16.147 43 15.591 43C15.031 43 14.639 42.806 14.415 42.418C14.191 42.03 14.079 41.486 14.079 40.786ZM16.557 40.786C16.557 40.438 16.533 40.144 16.485 39.904C16.441 39.66 16.347 39.464 16.203 39.316C16.063 39.168 15.859 39.094 15.591 39.094C15.319 39.094 15.111 39.168 14.967 39.316C14.827 39.464 14.733 39.66 14.685 39.904C14.641 40.144 14.619 40.438 14.619 40.786C14.619 41.146 14.641 41.448 14.685 41.692C14.733 41.936 14.827 42.132 14.967 42.28C15.111 42.428 15.319 42.502 15.591 42.502C15.859 42.502 16.063 42.428 16.203 42.28C16.347 42.132 16.441 41.936 16.485 41.692C16.533 41.448 16.557 41.146 16.557 40.786Z" fill="#B7BFC2"/>
<path d="M8.228 58.16V57.662H9.356V62H8.804V58.16H8.228ZM10.1619 61.034V60.62L12.2679 57.704H12.9219V60.56H13.5219V61.034H12.9219V62H12.3819V61.034H10.1619ZM12.4059 58.274L10.7919 60.56H12.4059V58.274ZM14.0673 59.786C14.0673 59.098 14.1793 58.562 14.4033 58.178C14.6273 57.79 15.0193 57.596 15.5793 57.596C16.1353 57.596 16.5253 57.79 16.7493 58.178C16.9733 58.562 17.0853 59.098 17.0853 59.786C17.0853 60.486 16.9733 61.03 16.7493 61.418C16.5253 61.806 16.1353 62 15.5793 62C15.0193 62 14.6273 61.806 14.4033 61.418C14.1793 61.03 14.0673 60.486 14.0673 59.786ZM16.5453 59.786C16.5453 59.438 16.5213 59.144 16.4733 58.904C16.4293 58.66 16.3353 58.464 16.1913 58.316C16.0513 58.168 15.8473 58.094 15.5793 58.094C15.3073 58.094 15.0993 58.168 14.9553 58.316C14.8153 58.464 14.7213 58.66 14.6733 58.904C14.6293 59.144 14.6073 59.438 14.6073 59.786C14.6073 60.146 14.6293 60.448 14.6733 60.692C14.7213 60.936 14.8153 61.132 14.9553 61.28C15.0993 61.428 15.3073 61.502 15.5793 61.502C15.8473 61.502 16.0513 61.428 16.1913 61.28C16.3353 61.132 16.4293 60.936 16.4733 60.692C16.5213 60.448 16.5453 60.146 16.5453 59.786Z" fill="#B7BFC2"/>
<path d="M8.228 77.16V76.662H9.356V81H8.804V77.16H8.228ZM10.2939 78.786C10.2939 78.098 10.4059 77.562 10.6299 77.178C10.8539 76.79 11.2459 76.596 11.8059 76.596C12.3619 76.596 12.7519 76.79 12.9759 77.178C13.1999 77.562 13.3119 78.098 13.3119 78.786C13.3119 79.486 13.1999 80.03 12.9759 80.418C12.7519 80.806 12.3619 81 11.8059 81C11.2459 81 10.8539 80.806 10.6299 80.418C10.4059 80.03 10.2939 79.486 10.2939 78.786ZM12.7719 78.786C12.7719 78.438 12.7479 78.144 12.6999 77.904C12.6559 77.66 12.5619 77.464 12.4179 77.316C12.2779 77.168 12.0739 77.094 11.8059 77.094C11.5339 77.094 11.3259 77.168 11.1819 77.316C11.0419 77.464 10.9479 77.66 10.8999 77.904C10.8559 78.144 10.8339 78.438 10.8339 78.786C10.8339 79.146 10.8559 79.448 10.8999 79.692C10.9479 79.936 11.0419 80.132 11.1819 80.28C11.3259 80.428 11.5339 80.502 11.8059 80.502C12.0739 80.502 12.2779 80.428 12.4179 80.28C12.5619 80.132 12.6559 79.936 12.6999 79.692C12.7479 79.448 12.7719 79.146 12.7719 78.786ZM14.0615 78.786C14.0615 78.098 14.1735 77.562 14.3975 77.178C14.6215 76.79 15.0135 76.596 15.5735 76.596C16.1295 76.596 16.5195 76.79 16.7435 77.178C16.9675 77.562 17.0795 78.098 17.0795 78.786C17.0795 79.486 16.9675 80.03 16.7435 80.418C16.5195 80.806 16.1295 81 15.5735 81C15.0135 81 14.6215 80.806 14.3975 80.418C14.1735 80.03 14.0615 79.486 14.0615 78.786ZM16.5395 78.786C16.5395 78.438 16.5155 78.144 16.4675 77.904C16.4235 77.66 16.3295 77.464 16.1855 77.316C16.0455 77.168 15.8415 77.094 15.5735 77.094C15.3015 77.094 15.0935 77.168 14.9495 77.316C14.8095 77.464 14.7155 77.66 14.6675 77.904C14.6235 78.144 14.6015 78.438 14.6015 78.786C14.6015 79.146 14.6235 79.448 14.6675 79.692C14.7155 79.936 14.8095 80.132 14.9495 80.28C15.0935 80.428 15.3015 80.502 15.5735 80.502C15.8415 80.502 16.0455 80.428 16.1855 80.28C16.3295 80.132 16.4235 79.936 16.4675 79.692C16.5155 79.448 16.5395 79.146 16.5395 78.786Z" fill="#B7BFC2"/>
<path d="M9.164 97.744C8.94 97.656 8.768 97.528 8.648 97.36C8.528 97.192 8.468 96.988 8.468 96.748C8.468 96.532 8.522 96.338 8.63 96.166C8.738 95.99 8.898 95.852 9.11 95.752C9.326 95.648 9.586 95.596 9.89 95.596C10.194 95.596 10.452 95.648 10.664 95.752C10.88 95.852 11.042 95.99 11.15 96.166C11.262 96.338 11.318 96.532 11.318 96.748C11.318 96.98 11.256 97.184 11.132 97.36C11.008 97.532 10.838 97.66 10.622 97.744C10.87 97.82 11.066 97.954 11.21 98.146C11.358 98.334 11.432 98.562 11.432 98.83C11.432 99.09 11.368 99.318 11.24 99.514C11.112 99.706 10.93 99.856 10.694 99.964C10.462 100.068 10.194 100.12 9.89 100.12C9.586 100.12 9.318 100.068 9.086 99.964C8.858 99.856 8.68 99.706 8.552 99.514C8.424 99.318 8.36 99.09 8.36 98.83C8.36 98.562 8.432 98.332 8.576 98.14C8.72 97.948 8.916 97.816 9.164 97.744ZM10.79 96.814C10.79 96.57 10.71 96.382 10.55 96.25C10.39 96.118 10.17 96.052 9.89 96.052C9.614 96.052 9.396 96.118 9.236 96.25C9.076 96.382 8.996 96.572 8.996 96.82C8.996 97.044 9.078 97.224 9.242 97.36C9.41 97.496 9.626 97.564 9.89 97.564C10.158 97.564 10.374 97.496 10.538 97.36C10.706 97.22 10.79 97.038 10.79 96.814ZM9.89 97.984C9.594 97.984 9.352 98.054 9.164 98.194C8.976 98.33 8.882 98.536 8.882 98.812C8.882 99.068 8.972 99.274 9.152 99.43C9.336 99.586 9.582 99.664 9.89 99.664C10.198 99.664 10.442 99.586 10.622 99.43C10.802 99.274 10.892 99.068 10.892 98.812C10.892 98.544 10.8 98.34 10.616 98.2C10.432 98.056 10.19 97.984 9.89 97.984ZM12.1572 97.786C12.1572 97.098 12.2692 96.562 12.4932 96.178C12.7172 95.79 13.1092 95.596 13.6692 95.596C14.2252 95.596 14.6152 95.79 14.8392 96.178C15.0632 96.562 15.1752 97.098 15.1752 97.786C15.1752 98.486 15.0632 99.03 14.8392 99.418C14.6152 99.806 14.2252 100 13.6692 100C13.1092 100 12.7172 99.806 12.4932 99.418C12.2692 99.03 12.1572 98.486 12.1572 97.786ZM14.6352 97.786C14.6352 97.438 14.6112 97.144 14.5632 96.904C14.5192 96.66 14.4252 96.464 14.2812 96.316C14.1412 96.168 13.9372 96.094 13.6692 96.094C13.3972 96.094 13.1892 96.168 13.0452 96.316C12.9052 96.464 12.8112 96.66 12.7632 96.904C12.7192 97.144 12.6972 97.438 12.6972 97.786C12.6972 98.146 12.7192 98.448 12.7632 98.692C12.8112 98.936 12.9052 99.132 13.0452 99.28C13.1892 99.428 13.3972 99.502 13.6692 99.502C13.9372 99.502 14.1412 99.428 14.2812 99.28C14.4252 99.132 14.5192 98.936 14.5632 98.692C14.6112 98.448 14.6352 98.146 14.6352 97.786Z" fill="#B7BFC2"/>
<path d="M8.372 116.786C8.372 116.098 8.484 115.562 8.708 115.178C8.932 114.79 9.324 114.596 9.884 114.596C10.44 114.596 10.83 114.79 11.054 115.178C11.278 115.562 11.39 116.098 11.39 116.786C11.39 117.486 11.278 118.03 11.054 118.418C10.83 118.806 10.44 119 9.884 119C9.324 119 8.932 118.806 8.708 118.418C8.484 118.03 8.372 117.486 8.372 116.786ZM10.85 116.786C10.85 116.438 10.826 116.144 10.778 115.904C10.734 115.66 10.64 115.464 10.496 115.316C10.356 115.168 10.152 115.094 9.884 115.094C9.612 115.094 9.404 115.168 9.26 115.316C9.12 115.464 9.026 115.66 8.978 115.904C8.934 116.144 8.912 116.438 8.912 116.786C8.912 117.146 8.934 117.448 8.978 117.692C9.026 117.936 9.12 118.132 9.26 118.28C9.404 118.428 9.612 118.502 9.884 118.502C10.152 118.502 10.356 118.428 10.496 118.28C10.64 118.132 10.734 117.936 10.778 117.692C10.826 117.448 10.85 117.146 10.85 116.786Z" fill="#B7BFC2"/>
<path d="M20.9882 123.786C20.9882 123.098 21.1002 122.562 21.3242 122.178C21.5482 121.79 21.9402 121.596 22.5002 121.596C23.0562 121.596 23.4462 121.79 23.6702 122.178C23.8942 122.562 24.0062 123.098 24.0062 123.786C24.0062 124.486 23.8942 125.03 23.6702 125.418C23.4462 125.806 23.0562 126 22.5002 126C21.9402 126 21.5482 125.806 21.3242 125.418C21.1002 125.03 20.9882 124.486 20.9882 123.786ZM23.4662 123.786C23.4662 123.438 23.4422 123.144 23.3942 122.904C23.3502 122.66 23.2562 122.464 23.1122 122.316C22.9722 122.168 22.7682 122.094 22.5002 122.094C22.2282 122.094 22.0202 122.168 21.8762 122.316C21.7362 122.464 21.6422 122.66 21.5942 122.904C21.5502 123.144 21.5282 123.438 21.5282 123.786C21.5282 124.146 21.5502 124.448 21.5942 124.692C21.6422 124.936 21.7362 125.132 21.8762 125.28C22.0202 125.428 22.2282 125.502 22.5002 125.502C22.7682 125.502 22.9722 125.428 23.1122 125.28C23.2562 125.132 23.3502 124.936 23.3942 124.692C23.4422 124.448 23.4662 124.146 23.4662 123.786Z" fill="#B7BFC2"/>
<path d="M28.7671 122.16V121.662H29.8951V126H29.3431V122.16H28.7671Z" fill="#B7BFC2"/>
<path d="M35.0804 125.562C35.5884 125.154 35.9864 124.82 36.2744 124.56C36.5624 124.296 36.8044 124.022 37.0004 123.738C37.2004 123.45 37.3004 123.168 37.3004 122.892C37.3004 122.632 37.2364 122.428 37.1084 122.28C36.9844 122.128 36.7824 122.052 36.5024 122.052C36.2304 122.052 36.0184 122.138 35.8664 122.31C35.7184 122.478 35.6384 122.704 35.6264 122.988H35.0984C35.1144 122.54 35.2504 122.194 35.5064 121.95C35.7624 121.706 36.0924 121.584 36.4964 121.584C36.9084 121.584 37.2344 121.698 37.4744 121.926C37.7184 122.154 37.8404 122.468 37.8404 122.868C37.8404 123.2 37.7404 123.524 37.5404 123.84C37.3444 124.152 37.1204 124.428 36.8684 124.668C36.6164 124.904 36.2944 125.18 35.9024 125.496H37.9664V125.952H35.0804V125.562Z" fill="#B7BFC2"/>
<path d="M42.0934 122.754C42.1214 122.386 42.2634 122.098 42.5194 121.89C42.7754 121.682 43.1074 121.578 43.5154 121.578C43.7874 121.578 44.0214 121.628 44.2174 121.728C44.4174 121.824 44.5674 121.956 44.6674 122.124C44.7714 122.292 44.8234 122.482 44.8234 122.694C44.8234 122.942 44.7514 123.156 44.6074 123.336C44.4674 123.516 44.2834 123.632 44.0554 123.684V123.714C44.3154 123.778 44.5214 123.904 44.6734 124.092C44.8254 124.28 44.9014 124.526 44.9014 124.83C44.9014 125.058 44.8494 125.264 44.7454 125.448C44.6414 125.628 44.4854 125.77 44.2774 125.874C44.0694 125.978 43.8194 126.03 43.5274 126.03C43.1034 126.03 42.7554 125.92 42.4834 125.7C42.2114 125.476 42.0594 125.16 42.0274 124.752H42.5554C42.5834 124.992 42.6814 125.188 42.8494 125.34C43.0174 125.492 43.2414 125.568 43.5214 125.568C43.8014 125.568 44.0134 125.496 44.1574 125.352C44.3054 125.204 44.3794 125.014 44.3794 124.782C44.3794 124.482 44.2794 124.266 44.0794 124.134C43.8794 124.002 43.5774 123.936 43.1734 123.936H43.0354V123.48H43.1794C43.5474 123.476 43.8254 123.416 44.0134 123.3C44.2014 123.18 44.2954 122.996 44.2954 122.748C44.2954 122.536 44.2254 122.366 44.0854 122.238C43.9494 122.11 43.7534 122.046 43.4974 122.046C43.2494 122.046 43.0494 122.11 42.8974 122.238C42.7454 122.366 42.6554 122.538 42.6274 122.754H42.0934Z" fill="#B7BFC2"/>
<path d="M48.8533 125.034V124.62L50.9593 121.704H51.6133V124.56H52.2133V125.034H51.6133V126H51.0733V125.034H48.8533ZM51.0973 122.274L49.4833 124.56H51.0973V122.274Z" fill="#B7BFC2"/>
<path d="M58.7542 122.136H56.6482V123.504C56.7402 123.376 56.8762 123.272 57.0562 123.192C57.2362 123.108 57.4302 123.066 57.6382 123.066C57.9702 123.066 58.2402 123.136 58.4482 123.276C58.6562 123.412 58.8042 123.59 58.8922 123.81C58.9842 124.026 59.0302 124.256 59.0302 124.5C59.0302 124.788 58.9762 125.046 58.8682 125.274C58.7602 125.502 58.5942 125.682 58.3702 125.814C58.1502 125.946 57.8762 126.012 57.5482 126.012C57.1282 126.012 56.7882 125.904 56.5282 125.688C56.2682 125.472 56.1102 125.184 56.0542 124.824H56.5882C56.6402 125.052 56.7502 125.23 56.9182 125.358C57.0862 125.486 57.2982 125.55 57.5542 125.55C57.8702 125.55 58.1082 125.456 58.2682 125.268C58.4282 125.076 58.5082 124.824 58.5082 124.512C58.5082 124.2 58.4282 123.96 58.2682 123.792C58.1082 123.62 57.8722 123.534 57.5602 123.534C57.3482 123.534 57.1622 123.586 57.0022 123.69C56.8462 123.79 56.7322 123.928 56.6602 124.104H56.1442V121.656H58.7542V122.136Z" fill="#B7BFC2"/>
<path d="M65.3857 122.694C65.2977 122.25 65.0237 122.028 64.5637 122.028C64.2077 122.028 63.9417 122.166 63.7657 122.442C63.5897 122.714 63.5037 123.164 63.5077 123.792C63.5997 123.584 63.7517 123.422 63.9637 123.306C64.1797 123.186 64.4197 123.126 64.6837 123.126C65.0957 123.126 65.4237 123.254 65.6677 123.51C65.9157 123.766 66.0397 124.12 66.0397 124.572C66.0397 124.844 65.9857 125.088 65.8777 125.304C65.7737 125.52 65.6137 125.692 65.3977 125.82C65.1857 125.948 64.9277 126.012 64.6237 126.012C64.2117 126.012 63.8897 125.92 63.6577 125.736C63.4257 125.552 63.2637 125.298 63.1717 124.974C63.0797 124.65 63.0337 124.25 63.0337 123.774C63.0337 122.306 63.5457 121.572 64.5697 121.572C64.9617 121.572 65.2697 121.678 65.4937 121.89C65.7177 122.102 65.8497 122.37 65.8897 122.694H65.3857ZM64.5697 123.588C64.3977 123.588 64.2357 123.624 64.0837 123.696C63.9317 123.764 63.8077 123.87 63.7117 124.014C63.6197 124.154 63.5737 124.326 63.5737 124.53C63.5737 124.834 63.6617 125.082 63.8377 125.274C64.0137 125.462 64.2657 125.556 64.5937 125.556C64.8737 125.556 65.0957 125.47 65.2597 125.298C65.4277 125.122 65.5117 124.886 65.5117 124.59C65.5117 124.278 65.4317 124.034 65.2717 123.858C65.1117 123.678 64.8777 123.588 64.5697 123.588Z" fill="#B7BFC2"/>
<path d="M72.9043 122.088L71.2363 126H70.6843L72.3763 122.142H70.0603V121.674H72.9043V122.088Z" fill="#B7BFC2"/>
<path d="M77.7714 123.744C77.5474 123.656 77.3754 123.528 77.2554 123.36C77.1354 123.192 77.0754 122.988 77.0754 122.748C77.0754 122.532 77.1294 122.338 77.2374 122.166C77.3454 121.99 77.5054 121.852 77.7174 121.752C77.9334 121.648 78.1934 121.596 78.4974 121.596C78.8014 121.596 79.0594 121.648 79.2714 121.752C79.4874 121.852 79.6494 121.99 79.7574 122.166C79.8694 122.338 79.9254 122.532 79.9254 122.748C79.9254 122.98 79.8634 123.184 79.7394 123.36C79.6154 123.532 79.4454 123.66 79.2294 123.744C79.4774 123.82 79.6734 123.954 79.8174 124.146C79.9654 124.334 80.0394 124.562 80.0394 124.83C80.0394 125.09 79.9754 125.318 79.8474 125.514C79.7194 125.706 79.5374 125.856 79.3014 125.964C79.0694 126.068 78.8014 126.12 78.4974 126.12C78.1934 126.12 77.9254 126.068 77.6934 125.964C77.4654 125.856 77.2874 125.706 77.1594 125.514C77.0314 125.318 76.9674 125.09 76.9674 124.83C76.9674 124.562 77.0394 124.332 77.1834 124.14C77.3274 123.948 77.5234 123.816 77.7714 123.744ZM79.3974 122.814C79.3974 122.57 79.3174 122.382 79.1574 122.25C78.9974 122.118 78.7774 122.052 78.4974 122.052C78.2214 122.052 78.0034 122.118 77.8434 122.25C77.6834 122.382 77.6034 122.572 77.6034 122.82C77.6034 123.044 77.6854 123.224 77.8494 123.36C78.0174 123.496 78.2334 123.564 78.4974 123.564C78.7654 123.564 78.9814 123.496 79.1454 123.36C79.3134 123.22 79.3974 123.038 79.3974 122.814ZM78.4974 123.984C78.2014 123.984 77.9594 124.054 77.7714 124.194C77.5834 124.33 77.4894 124.536 77.4894 124.812C77.4894 125.068 77.5794 125.274 77.7594 125.43C77.9434 125.586 78.1894 125.664 78.4974 125.664C78.8054 125.664 79.0494 125.586 79.2294 125.43C79.4094 125.274 79.4994 125.068 79.4994 124.812C79.4994 124.544 79.4074 124.34 79.2234 124.2C79.0394 124.056 78.7974 123.984 78.4974 123.984Z" fill="#B7BFC2"/>
<path d="M84.6844 124.836C84.7244 125.064 84.8164 125.24 84.9604 125.364C85.1084 125.488 85.3064 125.55 85.5544 125.55C85.8864 125.55 86.1304 125.42 86.2864 125.16C86.4464 124.9 86.5224 124.462 86.5144 123.846C86.4304 124.026 86.2904 124.168 86.0944 124.272C85.8984 124.372 85.6804 124.422 85.4404 124.422C85.1724 124.422 84.9324 124.368 84.7204 124.26C84.5124 124.148 84.3484 123.986 84.2284 123.774C84.1084 123.562 84.0484 123.306 84.0484 123.006C84.0484 122.578 84.1724 122.234 84.4204 121.974C84.6684 121.71 85.0204 121.578 85.4764 121.578C86.0364 121.578 86.4284 121.76 86.6524 122.124C86.8804 122.488 86.9944 123.03 86.9944 123.75C86.9944 124.254 86.9484 124.67 86.8564 124.998C86.7684 125.326 86.6164 125.576 86.4004 125.748C86.1884 125.92 85.8964 126.006 85.5244 126.006C85.1164 126.006 84.7984 125.896 84.5704 125.676C84.3424 125.456 84.2124 125.176 84.1804 124.836H84.6844ZM85.5304 123.96C85.7984 123.96 86.0184 123.878 86.1904 123.714C86.3624 123.546 86.4484 123.32 86.4484 123.036C86.4484 122.736 86.3644 122.494 86.1964 122.31C86.0284 122.126 85.7924 122.034 85.4884 122.034C85.2084 122.034 84.9844 122.122 84.8164 122.298C84.6524 122.474 84.5704 122.706 84.5704 122.994C84.5704 123.286 84.6524 123.52 84.8164 123.696C84.9804 123.872 85.2184 123.96 85.5304 123.96Z" fill="#B7BFC2"/>
<path d="M89.8833 122.16V121.662H91.0113V126H90.4593V122.16H89.8833ZM91.9491 123.786C91.9491 123.098 92.0611 122.562 92.2851 122.178C92.5091 121.79 92.9011 121.596 93.4611 121.596C94.0171 121.596 94.4071 121.79 94.6311 122.178C94.8551 122.562 94.9671 123.098 94.9671 123.786C94.9671 124.486 94.8551 125.03 94.6311 125.418C94.4071 125.806 94.0171 126 93.4611 126C92.9011 126 92.5091 125.806 92.2851 125.418C92.0611 125.03 91.9491 124.486 91.9491 123.786ZM94.4271 123.786C94.4271 123.438 94.4031 123.144 94.3551 122.904C94.3111 122.66 94.2171 122.464 94.0731 122.316C93.9331 122.168 93.7291 122.094 93.4611 122.094C93.1891 122.094 92.9811 122.168 92.8371 122.316C92.6971 122.464 92.6031 122.66 92.5551 122.904C92.5111 123.144 92.4891 123.438 92.4891 123.786C92.4891 124.146 92.5111 124.448 92.5551 124.692C92.6031 124.936 92.6971 125.132 92.8371 125.28C92.9811 125.428 93.1891 125.502 93.4611 125.502C93.7291 125.502 93.9331 125.428 94.0731 125.28C94.2171 125.132 94.3111 124.936 94.3551 124.692C94.4031 124.448 94.4271 124.146 94.4271 123.786Z" fill="#B7BFC2"/>
<path d="M97.8061 122.16V121.662H98.9341V126H98.3821V122.16H97.8061ZM99.728 122.16V121.662H100.856V126H100.304V122.16H99.728Z" fill="#B7BFC2"/>
<path d="M104.041 122.16V121.662H105.169V126H104.617V122.16H104.041ZM106.041 125.562C106.549 125.154 106.947 124.82 107.235 124.56C107.523 124.296 107.765 124.022 107.961 123.738C108.161 123.45 108.261 123.168 108.261 122.892C108.261 122.632 108.197 122.428 108.069 122.28C107.945 122.128 107.743 122.052 107.463 122.052C107.191 122.052 106.979 122.138 106.827 122.31C106.679 122.478 106.599 122.704 106.587 122.988H106.059C106.075 122.54 106.211 122.194 106.467 121.95C106.723 121.706 107.053 121.584 107.457 121.584C107.869 121.584 108.195 121.698 108.435 121.926C108.679 122.154 108.801 122.468 108.801 122.868C108.801 123.2 108.701 123.524 108.501 123.84C108.305 124.152 108.081 124.428 107.829 124.668C107.577 124.904 107.255 125.18 106.863 125.496H108.927V125.952H106.041V125.562Z" fill="#B7BFC2"/>
<path d="M112.767 122.16V121.662H113.895V126H113.343V122.16H112.767Z" fill="#B7BFC2"/>
<path d="M119.08 125.562C119.588 125.154 119.986 124.82 120.274 124.56C120.562 124.296 120.804 124.022 121 123.738C121.2 123.45 121.3 123.168 121.3 122.892C121.3 122.632 121.236 122.428 121.108 122.28C120.984 122.128 120.782 122.052 120.502 122.052C120.23 122.052 120.018 122.138 119.866 122.31C119.718 122.478 119.638 122.704 119.626 122.988H119.098C119.114 122.54 119.25 122.194 119.506 121.95C119.762 121.706 120.092 121.584 120.496 121.584C120.908 121.584 121.234 121.698 121.474 121.926C121.718 122.154 121.84 122.468 121.84 122.868C121.84 123.2 121.74 123.524 121.54 123.84C121.344 124.152 121.12 124.428 120.868 124.668C120.616 124.904 120.294 125.18 119.902 125.496H121.966V125.952H119.08V125.562Z" fill="#B7BFC2"/>
<path d="M126.093 122.754C126.121 122.386 126.263 122.098 126.519 121.89C126.775 121.682 127.107 121.578 127.515 121.578C127.787 121.578 128.021 121.628 128.217 121.728C128.417 121.824 128.567 121.956 128.667 122.124C128.771 122.292 128.823 122.482 128.823 122.694C128.823 122.942 128.751 123.156 128.607 123.336C128.467 123.516 128.283 123.632 128.055 123.684V123.714C128.315 123.778 128.521 123.904 128.673 124.092C128.825 124.28 128.901 124.526 128.901 124.83C128.901 125.058 128.849 125.264 128.745 125.448C128.641 125.628 128.485 125.77 128.277 125.874C128.069 125.978 127.819 126.03 127.527 126.03C127.103 126.03 126.755 125.92 126.483 125.7C126.211 125.476 126.059 125.16 126.027 124.752H126.555C126.583 124.992 126.681 125.188 126.849 125.34C127.017 125.492 127.241 125.568 127.521 125.568C127.801 125.568 128.013 125.496 128.157 125.352C128.305 125.204 128.379 125.014 128.379 124.782C128.379 124.482 128.279 124.266 128.079 124.134C127.879 124.002 127.577 123.936 127.173 123.936H127.035V123.48H127.179C127.547 123.476 127.825 123.416 128.013 123.3C128.201 123.18 128.295 122.996 128.295 122.748C128.295 122.536 128.225 122.366 128.085 122.238C127.949 122.11 127.753 122.046 127.497 122.046C127.249 122.046 127.049 122.11 126.897 122.238C126.745 122.366 126.655 122.538 126.627 122.754H126.093Z" fill="#B7BFC2"/>
<path d="M132.853 125.034V124.62L134.959 121.704H135.613V124.56H136.213V125.034H135.613V126H135.073V125.034H132.853ZM135.097 122.274L133.483 124.56H135.097V122.274Z" fill="#B7BFC2"/>
<path d="M142.754 122.136H140.648V123.504C140.74 123.376 140.876 123.272 141.056 123.192C141.236 123.108 141.43 123.066 141.638 123.066C141.97 123.066 142.24 123.136 142.448 123.276C142.656 123.412 142.804 123.59 142.892 123.81C142.984 124.026 143.03 124.256 143.03 124.5C143.03 124.788 142.976 125.046 142.868 125.274C142.76 125.502 142.594 125.682 142.37 125.814C142.15 125.946 141.876 126.012 141.548 126.012C141.128 126.012 140.788 125.904 140.528 125.688C140.268 125.472 140.11 125.184 140.054 124.824H140.588C140.64 125.052 140.75 125.23 140.918 125.358C141.086 125.486 141.298 125.55 141.554 125.55C141.87 125.55 142.108 125.456 142.268 125.268C142.428 125.076 142.508 124.824 142.508 124.512C142.508 124.2 142.428 123.96 142.268 123.792C142.108 123.62 141.872 123.534 141.56 123.534C141.348 123.534 141.162 123.586 141.002 123.69C140.846 123.79 140.732 123.928 140.66 124.104H140.144V121.656H142.754V122.136Z" fill="#B7BFC2"/>
<path d="M149.386 122.694C149.298 122.25 149.024 122.028 148.564 122.028C148.208 122.028 147.942 122.166 147.766 122.442C147.59 122.714 147.504 123.164 147.508 123.792C147.6 123.584 147.752 123.422 147.964 123.306C148.18 123.186 148.42 123.126 148.684 123.126C149.096 123.126 149.424 123.254 149.668 123.51C149.916 123.766 150.04 124.12 150.04 124.572C150.04 124.844 149.986 125.088 149.878 125.304C149.774 125.52 149.614 125.692 149.398 125.82C149.186 125.948 148.928 126.012 148.624 126.012C148.212 126.012 147.89 125.92 147.658 125.736C147.426 125.552 147.264 125.298 147.172 124.974C147.08 124.65 147.034 124.25 147.034 123.774C147.034 122.306 147.546 121.572 148.57 121.572C148.962 121.572 149.27 121.678 149.494 121.89C149.718 122.102 149.85 122.37 149.89 122.694H149.386ZM148.57 123.588C148.398 123.588 148.236 123.624 148.084 123.696C147.932 123.764 147.808 123.87 147.712 124.014C147.62 124.154 147.574 124.326 147.574 124.53C147.574 124.834 147.662 125.082 147.838 125.274C148.014 125.462 148.266 125.556 148.594 125.556C148.874 125.556 149.096 125.47 149.26 125.298C149.428 125.122 149.512 124.886 149.512 124.59C149.512 124.278 149.432 124.034 149.272 123.858C149.112 123.678 148.878 123.588 148.57 123.588Z" fill="#B7BFC2"/>
<path d="M156.904 122.088L155.236 126H154.684L156.376 122.142H154.06V121.674H156.904V122.088Z" fill="#B7BFC2"/>
<path d="M161.771 123.744C161.547 123.656 161.375 123.528 161.255 123.36C161.135 123.192 161.075 122.988 161.075 122.748C161.075 122.532 161.129 122.338 161.237 122.166C161.345 121.99 161.505 121.852 161.717 121.752C161.933 121.648 162.193 121.596 162.497 121.596C162.801 121.596 163.059 121.648 163.271 121.752C163.487 121.852 163.649 121.99 163.757 122.166C163.869 122.338 163.925 122.532 163.925 122.748C163.925 122.98 163.863 123.184 163.739 123.36C163.615 123.532 163.445 123.66 163.229 123.744C163.477 123.82 163.673 123.954 163.817 124.146C163.965 124.334 164.039 124.562 164.039 124.83C164.039 125.09 163.975 125.318 163.847 125.514C163.719 125.706 163.537 125.856 163.301 125.964C163.069 126.068 162.801 126.12 162.497 126.12C162.193 126.12 161.925 126.068 161.693 125.964C161.465 125.856 161.287 125.706 161.159 125.514C161.031 125.318 160.967 125.09 160.967 124.83C160.967 124.562 161.039 124.332 161.183 124.14C161.327 123.948 161.523 123.816 161.771 123.744ZM163.397 122.814C163.397 122.57 163.317 122.382 163.157 122.25C162.997 122.118 162.777 122.052 162.497 122.052C162.221 122.052 162.003 122.118 161.843 122.25C161.683 122.382 161.603 122.572 161.603 122.82C161.603 123.044 161.685 123.224 161.849 123.36C162.017 123.496 162.233 123.564 162.497 123.564C162.765 123.564 162.981 123.496 163.145 123.36C163.313 123.22 163.397 123.038 163.397 122.814ZM162.497 123.984C162.201 123.984 161.959 124.054 161.771 124.194C161.583 124.33 161.489 124.536 161.489 124.812C161.489 125.068 161.579 125.274 161.759 125.43C161.943 125.586 162.189 125.664 162.497 125.664C162.805 125.664 163.049 125.586 163.229 125.43C163.409 125.274 163.499 125.068 163.499 124.812C163.499 124.544 163.407 124.34 163.223 124.2C163.039 124.056 162.797 123.984 162.497 123.984Z" fill="#B7BFC2"/>
<path d="M168.684 124.836C168.724 125.064 168.816 125.24 168.96 125.364C169.108 125.488 169.306 125.55 169.554 125.55C169.886 125.55 170.13 125.42 170.286 125.16C170.446 124.9 170.522 124.462 170.514 123.846C170.43 124.026 170.29 124.168 170.094 124.272C169.898 124.372 169.68 124.422 169.44 124.422C169.172 124.422 168.932 124.368 168.72 124.26C168.512 124.148 168.348 123.986 168.228 123.774C168.108 123.562 168.048 123.306 168.048 123.006C168.048 122.578 168.172 122.234 168.42 121.974C168.668 121.71 169.02 121.578 169.476 121.578C170.036 121.578 170.428 121.76 170.652 122.124C170.88 122.488 170.994 123.03 170.994 123.75C170.994 124.254 170.948 124.67 170.856 124.998C170.768 125.326 170.616 125.576 170.4 125.748C170.188 125.92 169.896 126.006 169.524 126.006C169.116 126.006 168.798 125.896 168.57 125.676C168.342 125.456 168.212 125.176 168.18 124.836H168.684ZM169.53 123.96C169.798 123.96 170.018 123.878 170.19 123.714C170.362 123.546 170.448 123.32 170.448 123.036C170.448 122.736 170.364 122.494 170.196 122.31C170.028 122.126 169.792 122.034 169.488 122.034C169.208 122.034 168.984 122.122 168.816 122.298C168.652 122.474 168.57 122.706 168.57 122.994C168.57 123.286 168.652 123.52 168.816 123.696C168.98 123.872 169.218 123.96 169.53 123.96Z" fill="#B7BFC2"/>
<path d="M173.883 122.16V121.662H175.011V126H174.459V122.16H173.883ZM175.949 123.786C175.949 123.098 176.061 122.562 176.285 122.178C176.509 121.79 176.901 121.596 177.461 121.596C178.017 121.596 178.407 121.79 178.631 122.178C178.855 122.562 178.967 123.098 178.967 123.786C178.967 124.486 178.855 125.03 178.631 125.418C178.407 125.806 178.017 126 177.461 126C176.901 126 176.509 125.806 176.285 125.418C176.061 125.03 175.949 124.486 175.949 123.786ZM178.427 123.786C178.427 123.438 178.403 123.144 178.355 122.904C178.311 122.66 178.217 122.464 178.073 122.316C177.933 122.168 177.729 122.094 177.461 122.094C177.189 122.094 176.981 122.168 176.837 122.316C176.697 122.464 176.603 122.66 176.555 122.904C176.511 123.144 176.489 123.438 176.489 123.786C176.489 124.146 176.511 124.448 176.555 124.692C176.603 124.936 176.697 125.132 176.837 125.28C176.981 125.428 177.189 125.502 177.461 125.502C177.729 125.502 177.933 125.428 178.073 125.28C178.217 125.132 178.311 124.936 178.355 124.692C178.403 124.448 178.427 124.146 178.427 123.786Z" fill="#B7BFC2"/>
<path d="M181.806 122.16V121.662H182.934V126H182.382V122.16H181.806ZM183.728 122.16V121.662H184.856V126H184.304V122.16H183.728Z" fill="#B7BFC2"/>
<path d="M188.041 122.16V121.662H189.169V126H188.617V122.16H188.041ZM190.041 125.562C190.549 125.154 190.947 124.82 191.235 124.56C191.523 124.296 191.765 124.022 191.961 123.738C192.161 123.45 192.261 123.168 192.261 122.892C192.261 122.632 192.197 122.428 192.069 122.28C191.945 122.128 191.743 122.052 191.463 122.052C191.191 122.052 190.979 122.138 190.827 122.31C190.679 122.478 190.599 122.704 190.587 122.988H190.059C190.075 122.54 190.211 122.194 190.467 121.95C190.723 121.706 191.053 121.584 191.457 121.584C191.869 121.584 192.195 121.698 192.435 121.926C192.679 122.154 192.801 122.468 192.801 122.868C192.801 123.2 192.701 123.524 192.501 123.84C192.305 124.152 192.081 124.428 191.829 124.668C191.577 124.904 191.255 125.18 190.863 125.496H192.927V125.952H190.041V125.562Z" fill="#B7BFC2"/>
<rect x="19" y="136" width="1" height="175" transform="rotate(-90 19 136)" fill="#D8DCDE"/>
<rect x="22" y="135" width="5" height="1" transform="rotate(-90 22 135)" fill="#D9D9D9"/>
<rect x="29" y="135" width="5" height="1" transform="rotate(-90 29 135)" fill="#D9D9D9"/>
<rect x="36" y="135" width="5" height="1" transform="rotate(-90 36 135)" fill="#D9D9D9"/>
<rect x="43" y="135" width="5" height="1" transform="rotate(-90 43 135)" fill="#D9D9D9"/>
<rect x="50" y="135" width="5" height="1" transform="rotate(-90 50 135)" fill="#D9D9D9"/>
<rect x="57" y="135" width="5" height="1" transform="rotate(-90 57 135)" fill="#D9D9D9"/>
<rect x="64" y="135" width="5" height="1" transform="rotate(-90 64 135)" fill="#D9D9D9"/>
<rect x="71" y="135" width="5" height="1" transform="rotate(-90 71 135)" fill="#D9D9D9"/>
<rect x="78" y="135" width="5" height="1" transform="rotate(-90 78 135)" fill="#D9D9D9"/>
<rect x="85" y="135" width="5" height="1" transform="rotate(-90 85 135)" fill="#D9D9D9"/>
<rect x="92" y="135" width="5" height="1" transform="rotate(-90 92 135)" fill="#D9D9D9"/>
<rect x="99" y="135" width="5" height="1" transform="rotate(-90 99 135)" fill="#D9D9D9"/>
<rect x="106" y="135" width="5" height="1" transform="rotate(-90 106 135)" fill="#D9D9D9"/>
<rect x="113" y="135" width="5" height="1" transform="rotate(-90 113 135)" fill="#D9D9D9"/>
<rect x="120" y="135" width="5" height="1" transform="rotate(-90 120 135)" fill="#D9D9D9"/>
<rect x="127" y="135" width="5" height="1" transform="rotate(-90 127 135)" fill="#D9D9D9"/>
<rect x="134" y="135" width="5" height="1" transform="rotate(-90 134 135)" fill="#D9D9D9"/>
<rect x="141" y="135" width="5" height="1" transform="rotate(-90 141 135)" fill="#D9D9D9"/>
<rect x="148" y="135" width="5" height="1" transform="rotate(-90 148 135)" fill="#D9D9D9"/>
<rect x="155" y="135" width="5" height="1" transform="rotate(-90 155 135)" fill="#D9D9D9"/>
<rect x="162" y="135" width="5" height="1" transform="rotate(-90 162 135)" fill="#D9D9D9"/>
<rect x="169" y="135" width="5" height="1" transform="rotate(-90 169 135)" fill="#D9D9D9"/>
<rect x="176" y="135" width="5" height="1" transform="rotate(-90 176 135)" fill="#D9D9D9"/>
<rect x="183" y="135" width="5" height="1" transform="rotate(-90 183 135)" fill="#D9D9D9"/>
<rect x="190" y="135" width="5" height="1" transform="rotate(-90 190 135)" fill="#D9D9D9"/>
<path d="M21 22C21 21.4477 21.4477 21 22 21H24C24.5523 21 25 21.4477 25 22V118H21V22Z" fill="url(#paint0_linear_254_2891)"/>
<path d="M28 72C28 71.4477 28.4477 71 29 71H31C31.5523 71 32 71.4477 32 72V118H28V72Z" fill="url(#paint1_linear_254_2891)"/>
<path d="M35 88C35 87.4477 35.4477 87 36 87H38C38.5523 87 39 87.4477 39 88V118H35V88Z" fill="url(#paint2_linear_254_2891)"/>
<path d="M42 47C42 46.4477 42.4477 46 43 46H45C45.5523 46 46 46.4477 46 47V118H42V47Z" fill="url(#paint3_linear_254_2891)"/>
<path d="M49 40C49 39.4477 49.4477 39 50 39H52C52.5523 39 53 39.4477 53 40V118H49V40Z" fill="url(#paint4_linear_254_2891)"/>
<path d="M56 52C56 51.4477 56.4477 51 57 51H59C59.5523 51 60 51.4477 60 52V118H56V52Z" fill="url(#paint5_linear_254_2891)"/>
<path d="M63 52C63 51.4477 63.4477 51 64 51H66C66.5523 51 67 51.4477 67 52V118H63V52Z" fill="url(#paint6_linear_254_2891)"/>
<path d="M70 67C70 66.4477 70.4477 66 71 66H73C73.5523 66 74 66.4477 74 67V118H70V67Z" fill="url(#paint7_linear_254_2891)"/>
<path d="M77 85C77 84.4477 77.4477 84 78 84H80C80.5523 84 81 84.4477 81 85V118H77V85Z" fill="url(#paint8_linear_254_2891)"/>
<path d="M84 85C84 84.4477 84.4477 84 85 84H87C87.5523 84 88 84.4477 88 85V118H84V85Z" fill="url(#paint9_linear_254_2891)"/>
<path d="M91 98C91 97.4477 91.4477 97 92 97H94C94.5523 97 95 97.4477 95 98V118H91V98Z" fill="url(#paint10_linear_254_2891)"/>
<path d="M98 68C98 67.4477 98.4477 67 99 67H101C101.552 67 102 67.4477 102 68V118H98V68Z" fill="url(#paint11_linear_254_2891)"/>
<path d="M105 63C105 62.4477 105.448 62 106 62H108C108.552 62 109 62.4477 109 63V118H105V63Z" fill="url(#paint12_linear_254_2891)"/>
<path d="M112 52C112 51.4477 112.448 51 113 51H115C115.552 51 116 51.4477 116 52V118H112V52Z" fill="url(#paint13_linear_254_2891)"/>
<path d="M119 81C119 80.4477 119.448 80 120 80H122C122.552 80 123 80.4477 123 81V118H119V81Z" fill="url(#paint14_linear_254_2891)"/>
<path d="M126 68C126 67.4477 126.448 67 127 67H129C129.552 67 130 67.4477 130 68V118H126V68Z" fill="url(#paint15_linear_254_2891)"/>
<path d="M133 63C133 62.4477 133.448 62 134 62H136C136.552 62 137 62.4477 137 63V118H133V63Z" fill="url(#paint16_linear_254_2891)"/>
<path d="M140 74C140 73.4477 140.448 73 141 73H143C143.552 73 144 73.4477 144 74V118H140V74Z" fill="url(#paint17_linear_254_2891)"/>
<path d="M147 49C147 48.4477 147.448 48 148 48H150C150.552 48 151 48.4477 151 49V118H147V49Z" fill="url(#paint18_linear_254_2891)"/>
<path d="M154 42C154 41.4477 154.448 41 155 41H157C157.552 41 158 41.4477 158 42V118H154V42Z" fill="url(#paint19_linear_254_2891)"/>
<path d="M161 63C161 62.4477 161.448 62 162 62H164C164.552 62 165 62.4477 165 63V118H161V63Z" fill="url(#paint20_linear_254_2891)"/>
<path d="M168 74C168 73.4477 168.448 73 169 73H171C171.552 73 172 73.4477 172 74V118H168V74Z" fill="url(#paint21_linear_254_2891)"/>
<path d="M175 27C175 26.4477 175.448 26 176 26H178C178.552 26 179 26.4477 179 27V118H175V27Z" fill="url(#paint22_linear_254_2891)"/>
<path d="M182 19C182 18.4477 182.448 18 183 18H185C185.552 18 186 18.4477 186 19V118H182V19Z" fill="url(#paint23_linear_254_2891)"/>
<path d="M189 74C189 73.4477 189.448 73 190 73H192C192.552 73 193 73.4477 193 74V118H189V74Z" fill="url(#paint24_linear_254_2891)"/>
</g>
<defs>
<linearGradient id="paint0_linear_254_2891" x1="23" y1="22.3108" x2="-1.04458" y2="28.7916" gradientUnits="userSpaceOnUse">
<stop stop-color="#F77171"/>
<stop offset="1" stop-color="#720404"/>
</linearGradient>
<linearGradient id="paint1_linear_254_2891" x1="30" y1="71.6351" x2="10.3035" y2="82.5917" gradientUnits="userSpaceOnUse">
<stop stop-color="#F77171"/>
<stop offset="1" stop-color="#720404"/>
</linearGradient>
<linearGradient id="paint2_linear_254_2891" x1="37" y1="87.4189" x2="21.9286" y2="100.13" gradientUnits="userSpaceOnUse">
<stop stop-color="#F77171"/>
<stop offset="1" stop-color="#720404"/>
</linearGradient>
<linearGradient id="paint3_linear_254_2891" x1="45.8397" y1="84.0544" x2="41.0412" y2="83.5032" gradientUnits="userSpaceOnUse">
<stop stop-color="#4E06B2"/>
<stop offset="0.905" stop-color="#D0B4F5"/>
</linearGradient>
<linearGradient id="paint4_linear_254_2891" x1="52.8397" y1="80.7541" x2="48.0306" y2="80.2506" gradientUnits="userSpaceOnUse">
<stop stop-color="#4E06B2"/>
<stop offset="0.905" stop-color="#D0B4F5"/>
</linearGradient>
<linearGradient id="paint5_linear_254_2891" x1="59.8397" y1="86.4117" x2="55.0509" y2="85.8206" gradientUnits="userSpaceOnUse">
<stop stop-color="#4E06B2"/>
<stop offset="0.905" stop-color="#D0B4F5"/>
</linearGradient>
<linearGradient id="paint6_linear_254_2891" x1="66.8397" y1="86.4117" x2="62.0509" y2="85.8206" gradientUnits="userSpaceOnUse">
<stop stop-color="#4E06B2"/>
<stop offset="0.905" stop-color="#D0B4F5"/>
</linearGradient>
<linearGradient id="paint7_linear_254_2891" x1="73.8397" y1="93.4837" x2="69.0978" y2="92.7295" gradientUnits="userSpaceOnUse">
<stop stop-color="#4E06B2"/>
<stop offset="0.905" stop-color="#D0B4F5"/>
</linearGradient>
<linearGradient id="paint8_linear_254_2891" x1="80.8397" y1="101.97" x2="76.2495" y2="100.854" gradientUnits="userSpaceOnUse">
<stop stop-color="#4E06B2"/>
<stop offset="0.905" stop-color="#D0B4F5"/>
</linearGradient>
<linearGradient id="paint9_linear_254_2891" x1="87.8397" y1="101.97" x2="83.2495" y2="100.854" gradientUnits="userSpaceOnUse">
<stop stop-color="#4E06B2"/>
<stop offset="0.905" stop-color="#D0B4F5"/>
</linearGradient>
<linearGradient id="paint10_linear_254_2891" x1="94.8397" y1="108.099" x2="90.6307" y2="106.442" gradientUnits="userSpaceOnUse">
<stop stop-color="#4E06B2"/>
<stop offset="0.905" stop-color="#D0B4F5"/>
</linearGradient>
<linearGradient id="paint11_linear_254_2891" x1="101.84" y1="93.9552" x2="97.1025" y2="93.187" gradientUnits="userSpaceOnUse">
<stop stop-color="#4E06B2"/>
<stop offset="0.905" stop-color="#D0B4F5"/>
</linearGradient>
<linearGradient id="paint12_linear_254_2891" x1="108.84" y1="91.5978" x2="104.082" y2="90.8952" gradientUnits="userSpaceOnUse">
<stop stop-color="#4E06B2"/>
<stop offset="0.905" stop-color="#D0B4F5"/>
</linearGradient>
<linearGradient id="paint13_linear_254_2891" x1="115.84" y1="86.4117" x2="111.051" y2="85.8206" gradientUnits="userSpaceOnUse">
<stop stop-color="#4E06B2"/>
<stop offset="0.905" stop-color="#D0B4F5"/>
</linearGradient>
<linearGradient id="paint14_linear_254_2891" x1="118.924" y1="115.838" x2="122.841" y2="115.835" gradientUnits="userSpaceOnUse">
<stop stop-color="#0576C8"/>
<stop offset="0.46" stop-color="#87EBFD"/>
<stop offset="0.89" stop-color="#54C7DB"/>
</linearGradient>
<linearGradient id="paint15_linear_254_2891" x1="125.924" y1="115.099" x2="129.841" y2="115.096" gradientUnits="userSpaceOnUse">
<stop stop-color="#0576C8"/>
<stop offset="0.46" stop-color="#87EBFD"/>
<stop offset="0.89" stop-color="#54C7DB"/>
</linearGradient>
<linearGradient id="paint16_linear_254_2891" x1="132.924" y1="114.815" x2="136.841" y2="114.812" gradientUnits="userSpaceOnUse">
<stop stop-color="#0576C8"/>
<stop offset="0.46" stop-color="#87EBFD"/>
<stop offset="0.89" stop-color="#54C7DB"/>
</linearGradient>
<linearGradient id="paint17_linear_254_2891" x1="139.924" y1="115.44" x2="143.841" y2="115.437" gradientUnits="userSpaceOnUse">
<stop stop-color="#0576C8"/>
<stop offset="0.46" stop-color="#87EBFD"/>
<stop offset="0.89" stop-color="#54C7DB"/>
</linearGradient>
<linearGradient id="paint18_linear_254_2891" x1="146.924" y1="114.018" x2="150.841" y2="114.016" gradientUnits="userSpaceOnUse">
<stop stop-color="#0576C8"/>
<stop offset="0.46" stop-color="#87EBFD"/>
<stop offset="0.89" stop-color="#54C7DB"/>
</linearGradient>
<linearGradient id="paint19_linear_254_2891" x1="153.924" y1="113.62" x2="157.841" y2="113.618" gradientUnits="userSpaceOnUse">
<stop stop-color="#0576C8"/>
<stop offset="0.46" stop-color="#87EBFD"/>
<stop offset="0.89" stop-color="#54C7DB"/>
</linearGradient>
<linearGradient id="paint20_linear_254_2891" x1="161.879" y1="120.036" x2="155.686" y2="118.856" gradientUnits="userSpaceOnUse">
<stop stop-color="#01601E"/>
<stop offset="1" stop-color="#0DD946"/>
</linearGradient>
<linearGradient id="paint21_linear_254_2891" x1="168.879" y1="119.636" x2="162.803" y2="118.196" gradientUnits="userSpaceOnUse">
<stop stop-color="#01601E"/>
<stop offset="1" stop-color="#0DD946"/>
</linearGradient>
<linearGradient id="paint22_linear_254_2891" x1="175.879" y1="121.345" x2="169.547" y2="120.611" gradientUnits="userSpaceOnUse">
<stop stop-color="#01601E"/>
<stop offset="1" stop-color="#0DD946"/>
</linearGradient>
<linearGradient id="paint23_linear_254_2891" x1="182.879" y1="121.636" x2="176.534" y2="120.959" gradientUnits="userSpaceOnUse">
<stop stop-color="#01601E"/>
<stop offset="1" stop-color="#0DD946"/>
</linearGradient>
<linearGradient id="paint24_linear_254_2891" x1="189.879" y1="119.636" x2="183.803" y2="118.196" gradientUnits="userSpaceOnUse">
<stop stop-color="#01601E"/>
<stop offset="1" stop-color="#0DD946"/>
</linearGradient>
<clipPath id="clip0_254_2891">
<rect width="193" height="140" fill="white"/>
</clipPath>
</defs>
</svg>
