<svg width="19" height="21" viewBox="0 0 19 21" fill="none" xmlns="http://www.w3.org/2000/svg">
<path d="M6.7 0.399902C6.06348 0.399902 5.45303 0.652759 5.00294 1.10285C4.55285 1.55293 4.3 2.16338 4.3 2.7999V9.0483C4.69228 8.9374 5.094 8.86308 5.5 8.8263V2.7999C5.5 2.48164 5.62643 2.17642 5.85147 1.95137C6.07651 1.72633 6.38174 1.5999 6.7 1.5999H11.5V5.7999C11.5 6.27729 11.6896 6.73513 12.0272 7.07269C12.3648 7.41026 12.8226 7.5999 13.3 7.5999H17.5V17.1999C17.5 17.5182 17.3736 17.8234 17.1485 18.0484C16.9235 18.2735 16.6183 18.3999 16.3 18.3999H11.98C11.7616 18.8274 11.4973 19.2298 11.1916 19.5999H16.3C16.9365 19.5999 17.547 19.347 17.9971 18.897C18.4471 18.4469 18.7 17.8364 18.7 17.1999V6.8967C18.6996 6.41947 18.5097 5.96194 18.172 5.6247L13.4752 0.926702C13.1378 0.58948 12.6803 0.400004 12.2032 0.399902H6.7ZM17.2516 6.3999H13.3C13.1409 6.3999 12.9883 6.33669 12.8757 6.22417C12.7632 6.11164 12.7 5.95903 12.7 5.7999V1.8483L17.2516 6.3999ZM6.1 20.7999C7.53217 20.7999 8.90568 20.231 9.91837 19.2183C10.9311 18.2056 11.5 16.8321 11.5 15.3999C11.5 13.9677 10.9311 12.5942 9.91837 11.5815C8.90568 10.5688 7.53217 9.9999 6.1 9.9999C4.66783 9.9999 3.29432 10.5688 2.28162 11.5815C1.26892 12.5942 0.699997 13.9677 0.699997 15.3999C0.699997 16.8321 1.26892 18.2056 2.28162 19.2183C3.29432 20.231 4.66783 20.7999 6.1 20.7999ZM8.9248 14.9763C8.9805 15.0321 9.02468 15.0983 9.0548 15.1712C9.08491 15.244 9.10039 15.3221 9.10033 15.4009C9.10028 15.4798 9.08469 15.5578 9.05447 15.6306C9.02425 15.7034 8.97998 15.7696 8.9242 15.8253C8.86841 15.881 8.8022 15.9252 8.72934 15.9553C8.65649 15.9854 8.57841 16.0009 8.49957 16.0008C8.42074 16.0008 8.34268 15.9852 8.26987 15.955C8.19705 15.9248 8.1309 15.8805 8.0752 15.8247L6.7 14.4483V17.7999C6.7 17.959 6.63678 18.1116 6.52426 18.2242C6.41174 18.3367 6.25913 18.3999 6.1 18.3999C5.94087 18.3999 5.78825 18.3367 5.67573 18.2242C5.56321 18.1116 5.5 17.959 5.5 17.7999V14.4483L4.1248 15.8247C4.01229 15.9374 3.85964 16.0007 3.70042 16.0008C3.5412 16.0009 3.38846 15.9378 3.2758 15.8253C3.16313 15.7128 3.09978 15.5601 3.09966 15.4009C3.09955 15.2417 3.16269 15.089 3.2752 14.9763L5.6752 12.5763C5.78686 12.4643 5.93824 12.4009 6.0964 12.3999H6.1036C6.26 12.4009 6.40984 12.4629 6.5212 12.5727L6.5248 12.5763L8.9248 14.9763Z" fill="#FF7EC2"/>
</svg>
