<svg width="8" height="12" viewBox="0 0 8 12" fill="none" xmlns="http://www.w3.org/2000/svg">
<path d="M7.07885 6.55191L1.50585 11.8619C1.41286 11.9505 1.28932 12 1.16085 12C1.03238 12 0.908836 11.9505 0.815848 11.8619L0.809848 11.8559C0.764613 11.8129 0.728593 11.7612 0.703979 11.7039C0.679366 11.6465 0.666673 11.5848 0.666673 11.5224C0.666673 11.46 0.679366 11.3983 0.703979 11.3409C0.728593 11.2836 0.764613 11.2319 0.809848 11.1889L6.05785 6.1889L0.809847 1.19091C0.764612 1.14793 0.728593 1.09621 0.703979 1.03887C0.679365 0.98154 0.666672 0.919799 0.666672 0.857406C0.666672 0.795013 0.679365 0.733272 0.703979 0.675939C0.728593 0.618606 0.764612 0.566879 0.809847 0.523906L0.815848 0.517906C0.908836 0.429261 1.03238 0.37981 1.16085 0.37981C1.28932 0.37981 1.41286 0.429261 1.50585 0.517905L7.07885 5.8279C7.12786 5.8746 7.16688 5.93077 7.19354 5.99299C7.2202 6.05522 7.23395 6.12221 7.23395 6.18991C7.23395 6.2576 7.2202 6.32459 7.19354 6.38682C7.16688 6.44904 7.12786 6.50521 7.07885 6.55191Z" fill="#D8DCDE"/>
</svg>
