<svg width="25" height="24" viewBox="0 0 25 24" fill="none" xmlns="http://www.w3.org/2000/svg">
<path d="M15.9248 11.8247C16.0375 11.712 16.1007 11.5592 16.1007 11.3999C16.1007 11.2406 16.0375 11.0878 15.9248 10.9751C15.8121 10.8624 15.6593 10.7991 15.5 10.7991C15.3407 10.7991 15.1879 10.8624 15.0752 10.9751L11.3 14.7515L9.92479 13.3751C9.869 13.3193 9.80278 13.2751 9.72989 13.2449C9.657 13.2147 9.57888 13.1991 9.49999 13.1991C9.42109 13.1991 9.34297 13.2147 9.27009 13.2449C9.1972 13.2751 9.13097 13.3193 9.07519 13.3751C9.0194 13.4309 8.97515 13.4971 8.94496 13.57C8.91477 13.6429 8.89923 13.721 8.89923 13.7999C8.89923 13.8788 8.91477 13.9569 8.94496 14.0298C8.97515 14.1027 9.0194 14.1689 9.07519 14.2247L10.8752 16.0247C10.9309 16.0806 10.9971 16.1249 11.07 16.1552C11.1429 16.1854 11.2211 16.201 11.3 16.201C11.3789 16.201 11.4571 16.1854 11.5299 16.1552C11.6028 16.1249 11.6691 16.0806 11.7248 16.0247L15.9248 11.8247ZM10.7 2.3999C10.3276 2.39971 9.96431 2.51502 9.6602 2.72994C9.35609 2.94486 9.12612 3.24881 9.00199 3.5999H7.09999C6.6226 3.5999 6.16476 3.78955 5.8272 4.12711C5.48963 4.46468 5.29999 4.92251 5.29999 5.3999V19.7999C5.29999 20.2773 5.48963 20.7351 5.8272 21.0727C6.16476 21.4103 6.6226 21.5999 7.09999 21.5999H17.9C18.3774 21.5999 18.8352 21.4103 19.1728 21.0727C19.5103 20.7351 19.7 20.2773 19.7 19.7999V5.3999C19.7 4.92251 19.5103 4.46468 19.1728 4.12711C18.8352 3.78955 18.3774 3.5999 17.9 3.5999H15.998C15.8739 3.24881 15.6439 2.94486 15.3398 2.72994C15.0357 2.51502 14.6724 2.39971 14.3 2.3999H10.7ZM10.1 4.1999C10.1 4.04077 10.1632 3.88816 10.2757 3.77564C10.3882 3.66312 10.5409 3.5999 10.7 3.5999H14.3C14.4591 3.5999 14.6117 3.66312 14.7243 3.77564C14.8368 3.88816 14.9 4.04077 14.9 4.1999C14.9 4.35903 14.8368 4.51164 14.7243 4.62417C14.6117 4.73669 14.4591 4.7999 14.3 4.7999H10.7C10.5409 4.7999 10.3882 4.73669 10.2757 4.62417C10.1632 4.51164 10.1 4.35903 10.1 4.1999ZM7.09999 4.7999H9.00199C9.12612 5.151 9.35609 5.45495 9.6602 5.66987C9.96431 5.88479 10.3276 6.0001 10.7 5.9999H14.3C14.6724 6.0001 15.0357 5.88479 15.3398 5.66987C15.6439 5.45495 15.8739 5.151 15.998 4.7999H17.9C18.0591 4.7999 18.2117 4.86312 18.3243 4.97564C18.4368 5.08816 18.5 5.24077 18.5 5.3999V19.7999C18.5 19.959 18.4368 20.1116 18.3243 20.2242C18.2117 20.3367 18.0591 20.3999 17.9 20.3999H7.09999C6.94086 20.3999 6.78825 20.3367 6.67572 20.2242C6.5632 20.1116 6.49999 19.959 6.49999 19.7999V5.3999C6.49999 5.24077 6.5632 5.08816 6.67572 4.97564C6.78825 4.86312 6.94086 4.7999 7.09999 4.7999Z" fill="#FF7EC2"/>
</svg>
