<svg width="24" height="24" viewBox="0 0 24 24" fill="none" xmlns="http://www.w3.org/2000/svg">
<path d="M20 22V16C20 13.2 20 11.8 19.455 10.73C18.9756 9.78923 18.2108 9.02436 17.27 8.545C16.2 8 14.8 8 12 8C9.2 8 7.8 8 6.73 8.545C5.78923 9.02436 5.02436 9.78923 4.545 10.73C4 11.8 4 13.2 4 16V22" stroke="#FF7EC2"/>
<path d="M15 10.815C16.23 10.815 17.23 11.77 17.185 13M2 22H22M12 2V5M21 5L19.5 6.5M3 5L4.5 6.5" stroke="#FF7EC2" stroke-linecap="round"/>
<path d="M13.5 17.5C13.5 17.8978 13.342 18.2794 13.0607 18.5607C12.7794 18.842 12.3978 19 12 19C11.6022 19 11.2206 18.842 10.9393 18.5607C10.658 18.2794 10.5 17.8978 10.5 17.5C10.5 17.1022 10.658 16.7206 10.9393 16.4393C11.2206 16.158 11.6022 16 12 16C12.3978 16 12.7794 16.158 13.0607 16.4393C13.342 16.7206 13.5 17.1022 13.5 17.5Z" stroke="#FF7EC2"/>
<path d="M12 19V22" stroke="#FF7EC2" stroke-linecap="round"/>
</svg>
