<svg width="18" height="11" viewBox="0 0 18 11" fill="none" xmlns="http://www.w3.org/2000/svg">
<path d="M8.17214 10.1182L0.207143 1.75868C0.074176 1.6192 0 1.43389 0 1.24118C0 1.04847 0.074176 0.863163 0.207143 0.72368L0.216143 0.71468C0.280603 0.646827 0.358193 0.592797 0.444192 0.555877C0.530192 0.518956 0.622803 0.499917 0.716393 0.499917C0.809983 0.499917 0.902594 0.518956 0.988594 0.555877C1.07459 0.592797 1.15218 0.646827 1.21664 0.71468L8.71664 8.58668L16.2136 0.71468C16.2781 0.646827 16.3557 0.592797 16.4417 0.555877C16.5277 0.518956 16.6203 0.499917 16.7139 0.499917C16.8075 0.499917 16.9001 0.518956 16.9861 0.555877C17.0721 0.592797 17.1497 0.646827 17.2141 0.71468L17.2231 0.72368C17.3561 0.863163 17.4303 1.04847 17.4303 1.24118C17.4303 1.43389 17.3561 1.6192 17.2231 1.75868L9.25814 10.1182C9.1881 10.1917 9.10385 10.2502 9.01051 10.2902C8.91717 10.3302 8.81669 10.3508 8.71514 10.3508C8.6136 10.3508 8.51311 10.3302 8.41977 10.2902C8.32643 10.2502 8.24219 10.1917 8.17214 10.1182Z" fill="white"/>
</svg>
