<svg width="8" height="13" viewBox="0 0 8 13" fill="none" xmlns="http://www.w3.org/2000/svg">
<path d="M0.921214 7.05191L6.49421 12.3619C6.5872 12.4505 6.71074 12.5 6.83921 12.5C6.96768 12.5 7.09122 12.4505 7.18421 12.3619L7.19021 12.3559C7.23545 12.3129 7.27147 12.2612 7.29608 12.2039C7.3207 12.1465 7.33339 12.0848 7.33339 12.0224C7.33339 11.96 7.3207 11.8983 7.29608 11.8409C7.27147 11.7836 7.23545 11.7319 7.19021 11.6889L1.94221 6.6889L7.19021 1.69091C7.23545 1.64793 7.27147 1.59621 7.29608 1.53887C7.3207 1.48154 7.33339 1.4198 7.33339 1.35741C7.33339 1.29501 7.3207 1.23327 7.29608 1.17594C7.27147 1.11861 7.23545 1.06688 7.19021 1.02391L7.18421 1.01791C7.09123 0.929261 6.96768 0.87981 6.83921 0.87981C6.71074 0.87981 6.5872 0.929261 6.49421 1.01791L0.921214 6.3279C0.872202 6.3746 0.833182 6.43077 0.806522 6.49299C0.779861 6.55522 0.766114 6.62221 0.766114 6.68991C0.766114 6.7576 0.779861 6.82459 0.806522 6.88682C0.833182 6.94904 0.872202 7.00521 0.921214 7.05191Z" fill="url(#paint0_linear_327_223)"/>
<defs>
<linearGradient id="paint0_linear_327_223" x1="0.766113" y1="12.5" x2="0.918629" y2="1.09474" gradientUnits="userSpaceOnUse">
<stop stop-color="#B57EFA"/>
<stop offset="0.54" stop-color="#FF7FC1"/>
<stop offset="0.99" stop-color="#FEA986"/>
</linearGradient>
</defs>
</svg>
