<svg width="16" height="16" viewBox="0 0 16 16" fill="none" xmlns="http://www.w3.org/2000/svg">
<rect width="16" height="16" rx="8" fill="#FF7FC1"/>
<path fill-rule="evenodd" clip-rule="evenodd" d="M9.91504 4.1875H6.58502C6.41627 4.1875 6.33189 4.31519 6.34427 4.42376C6.40839 4.98232 6.52877 5.62358 6.73014 6.03364C6.99846 6.58096 7.6459 7.19577 8.13471 7.60246C8.16667 7.63032 8.20763 7.64567 8.25003 7.64567C8.29242 7.64567 8.33338 7.63032 8.36534 7.60246C8.85472 7.19577 9.5016 6.58096 9.76991 6.03308C9.97129 5.62358 10.0917 4.98232 10.1564 4.42376C10.1687 4.31519 10.0838 4.1875 9.9156 4.1875M6.58502 3.625C6.11026 3.625 5.73057 4.0165 5.78514 4.48788C5.85039 5.0532 5.97808 5.77826 6.22501 6.28114C6.55183 6.94715 7.28702 7.6289 7.77527 8.03503C8.05315 8.26566 8.4469 8.26566 8.72478 8.03503C9.21303 7.6289 9.94823 6.94715 10.275 6.28114C10.522 5.77826 10.6497 5.0532 10.7149 4.48788C10.7695 4.0165 10.3898 3.625 9.91504 3.625H6.58502Z" fill="white"/>
<path fill-rule="evenodd" clip-rule="evenodd" d="M6.58501 12.0626H9.91503C10.0838 12.0626 10.1682 11.9349 10.1558 11.8263C10.0917 11.2677 9.97128 10.6265 9.76991 10.217C9.50159 9.6691 8.85415 9.05429 8.36534 8.6476C8.33338 8.61974 8.29242 8.6044 8.25002 8.6044C8.20763 8.6044 8.16667 8.61974 8.13471 8.6476C7.64533 9.05429 6.99845 9.6691 6.73014 10.217C6.52876 10.6265 6.40839 11.2677 6.3437 11.8269C6.33132 11.9349 6.41682 12.0626 6.58501 12.0626ZM9.91447 12.6251C10.3892 12.6251 10.7689 12.2336 10.7144 11.7622C10.6491 11.1963 10.5214 10.4718 10.2745 9.96892C9.94766 9.30291 9.21247 8.62116 8.72421 8.21503C8.59129 8.1032 8.42316 8.04189 8.24946 8.04189C8.07576 8.04189 7.90763 8.1032 7.77471 8.21503C7.28645 8.62116 6.55126 9.30291 6.22445 9.96892C5.97751 10.4718 5.84982 11.1963 5.78457 11.7622C5.73057 12.2336 6.11026 12.6251 6.58501 12.6251H9.91447ZM4.875 3.90625C4.875 3.83166 4.90463 3.76012 4.95738 3.70738C5.01012 3.65463 5.08166 3.625 5.15625 3.625H11.3438C11.4184 3.625 11.4899 3.65463 11.5427 3.70738C11.5954 3.76012 11.625 3.83166 11.625 3.90625C11.625 3.98084 11.5954 4.05238 11.5427 4.10513C11.4899 4.15787 11.4184 4.1875 11.3438 4.1875H5.15625C5.08166 4.1875 5.01012 4.15787 4.95738 4.10513C4.90463 4.05238 4.875 3.98084 4.875 3.90625Z" fill="white"/>
<path fill-rule="evenodd" clip-rule="evenodd" d="M4.875 12.3438C4.875 12.2692 4.90463 12.1976 4.95738 12.1449C5.01012 12.0921 5.08166 12.0625 5.15625 12.0625H11.3438C11.4184 12.0625 11.4899 12.0921 11.5427 12.1449C11.5954 12.1976 11.625 12.2692 11.625 12.3438C11.625 12.4183 11.5954 12.4899 11.5427 12.5426C11.4899 12.5954 11.4184 12.625 11.3438 12.625H5.15625C5.08166 12.625 5.01012 12.5954 4.95738 12.5426C4.90463 12.4899 4.875 12.4183 4.875 12.3438Z" fill="white"/>
</svg>
