<svg width="16" height="16" viewBox="0 0 16 16" fill="none" xmlns="http://www.w3.org/2000/svg">
<rect width="16" height="16" rx="8" fill="#0576C8"/>
<path d="M7.5 11H9.5M8.75 6H9.2215C9.8765 6 10.2045 6 10.482 6.1575C10.76 6.3145 10.945 6.605 11.3155 7.1855C11.5755 7.5925 11.8475 7.8885 12.231 8.151C12.617 8.416 12.801 8.5455 12.9025 8.753C13 8.952 13 9.1875 13 9.6585C13 10.28 13 10.5905 12.8255 10.788L12.8025 10.8125C12.619 11 12.3295 11 11.7515 11H11.5M8.75 6C8.75 5.293 8.75 4.9395 8.53 4.72C8.3105 4.5 7.957 4.5 7.25 4.5H4.5C3.7925 4.5 3.439 4.5 3.22 4.72C3 4.9395 3 5.293 3 6V9.5C3 10.2075 3 10.561 3.22 10.78C3.4395 11 3.793 11 4.5 11M8.75 6V11H6.5M13 9.5H12.5M6 6.5V8.5M7 7.5H5" stroke="white" stroke-width="0.7" stroke-linecap="round" stroke-linejoin="round"/>
<path d="M10.5 12C11.0523 12 11.5 11.5523 11.5 11C11.5 10.4477 11.0523 10 10.5 10C9.94772 10 9.5 10.4477 9.5 11C9.5 11.5523 9.94772 12 10.5 12Z" stroke="white" stroke-width="0.7" stroke-linecap="round" stroke-linejoin="round"/>
<path d="M5.5 12C6.05228 12 6.5 11.5523 6.5 11C6.5 10.4477 6.05228 10 5.5 10C4.94772 10 4.5 10.4477 4.5 11C4.5 11.5523 4.94772 12 5.5 12Z" stroke="white" stroke-width="0.7" stroke-linecap="round" stroke-linejoin="round"/>
</svg>
