<svg width="16" height="16" viewBox="0 0 16 16" fill="none" xmlns="http://www.w3.org/2000/svg">
<rect width="16" height="16" rx="8" fill="#03932F"/>
<g clip-path="url(#clip0_209_851)">
<path d="M11.8578 5.69538C11.8389 5.64853 11.8088 5.60697 11.7703 5.57428C11.7317 5.54158 11.6859 5.51872 11.6365 5.50766C11.5872 5.4966 11.536 5.49767 11.4871 5.51077C11.4383 5.52387 11.3934 5.54861 11.3563 5.58288L9.78205 7.03561L9.109 6.89108L8.96447 6.21804L10.4172 4.64382C10.4515 4.60667 10.4762 4.56176 10.4893 4.51294C10.5024 4.46413 10.5035 4.41287 10.4924 4.36355C10.4814 4.31423 10.4585 4.26833 10.4258 4.22979C10.3931 4.19125 10.3516 4.16121 10.3047 4.14226C9.87772 3.96953 9.41486 3.90432 8.95678 3.95234C8.4987 4.00036 8.05942 4.16015 7.67755 4.41767C7.29567 4.67518 6.98289 5.02254 6.76667 5.42923C6.55045 5.83591 6.43742 6.28948 6.43751 6.75007C6.43696 7.13901 6.51676 7.52387 6.67189 7.88054L4.31994 9.91413C4.31408 9.91882 4.30861 9.92429 4.30314 9.92936C4.06869 10.1638 3.93698 10.4818 3.93698 10.8133C3.93698 10.9775 3.96932 11.1401 4.03214 11.2918C4.09497 11.4434 4.18705 11.5812 4.30314 11.6973C4.41923 11.8134 4.55704 11.9055 4.70872 11.9683C4.86039 12.0312 5.02295 12.0635 5.18712 12.0635C5.51868 12.0635 5.83666 11.9318 6.07111 11.6973C6.07619 11.6923 6.08166 11.6864 6.08634 11.6809L8.11955 9.32819C8.54784 9.5162 9.01626 9.59442 9.4824 9.55577C9.94854 9.51712 10.3977 9.36283 10.7892 9.10686C11.1807 8.85088 11.5021 8.50132 11.7245 8.0898C11.9468 7.67828 12.063 7.21781 12.0625 6.75007C12.0631 6.38858 11.9936 6.03041 11.8578 5.69538ZM9.25001 8.93757C8.88012 8.93706 8.51637 8.843 8.19259 8.66413C8.12987 8.62948 8.05714 8.61744 7.98659 8.63002C7.91604 8.64261 7.85196 8.67906 7.80509 8.73327L5.6215 11.2622C5.50334 11.3744 5.34599 11.4361 5.18302 11.434C5.02004 11.4319 4.86433 11.3663 4.74907 11.251C4.63382 11.1358 4.56815 10.98 4.56607 10.8171C4.56398 10.6541 4.62564 10.4967 4.73791 10.3786L7.26486 8.19538C7.31916 8.14849 7.35567 8.08434 7.36826 8.0137C7.38085 7.94307 7.36875 7.87026 7.334 7.80749C7.13479 7.44719 7.0413 7.03799 7.06428 6.62694C7.08726 6.21588 7.22578 5.81965 7.4639 5.4838C7.70203 5.14795 8.0301 4.88612 8.41039 4.72841C8.79069 4.57069 9.20777 4.5235 9.61369 4.59226L8.39494 5.91296C8.36103 5.94974 8.33644 5.99414 8.32326 6.0424C8.31007 6.09066 8.30866 6.14138 8.31916 6.1903L8.54025 7.21882C8.55289 7.27764 8.58225 7.33157 8.6248 7.37411C8.66734 7.41666 8.72127 7.44602 8.78009 7.45866L9.80939 7.67976C9.85831 7.69025 9.90903 7.68884 9.95729 7.67565C10.0056 7.66247 10.0499 7.63788 10.0867 7.60397L11.4074 6.38522C11.4601 6.6989 11.4438 7.02028 11.3596 7.32701C11.2755 7.63374 11.1256 7.91847 10.9202 8.16138C10.7149 8.40429 10.4591 8.59956 10.1707 8.7336C9.88225 8.86764 9.56808 8.93725 9.25001 8.93757Z" fill="white"/>
</g>
<defs>
<clipPath id="clip0_209_851">
<rect width="10" height="10" fill="white" transform="translate(3 3)"/>
</clipPath>
</defs>
</svg>
