<svg width="16" height="16" viewBox="0 0 16 16" fill="none" xmlns="http://www.w3.org/2000/svg">
<rect width="16" height="16" rx="8" fill="#FBCB6E"/>
<g clip-path="url(#clip0_209_1050)">
<path d="M12.6429 11.675H11.8254L9.13482 4.09531C9.08614 3.95798 8.99504 3.8389 8.87416 3.75462C8.75328 3.67034 8.60862 3.62504 8.46027 3.625H7.53973C7.39144 3.62501 7.24682 3.67025 7.12594 3.75444C7.00507 3.83864 6.91393 3.95762 6.86518 4.09488L4.17455 11.675H3.35714C3.26242 11.675 3.17158 11.7119 3.1046 11.7775C3.03763 11.8432 3 11.9322 3 12.025C3 12.1178 3.03763 12.2069 3.1046 12.2725C3.17158 12.3381 3.26242 12.375 3.35714 12.375H12.6429C12.7376 12.375 12.8284 12.3381 12.8954 12.2725C12.9624 12.2069 13 12.1178 13 12.025C13 11.9322 12.9624 11.8432 12.8954 11.7775C12.8284 11.7119 12.7376 11.675 12.6429 11.675ZM6.54598 7.125H9.45402L10.1996 9.225H5.80045L6.54598 7.125ZM7.53973 4.325H8.46027L9.20536 6.425H6.79464L7.53973 4.325ZM5.55223 9.925H10.4478L11.0692 11.675H4.9308L5.55223 9.925Z" fill="white"/>
</g>
<defs>
<clipPath id="clip0_209_1050">
<rect width="10" height="10" fill="white" transform="translate(3 3)"/>
</clipPath>
</defs>
</svg>
