<svg width="16" height="16" viewBox="0 0 16 16" fill="none" xmlns="http://www.w3.org/2000/svg">
<rect width="16" height="16" rx="8" fill="#F54545"/>
<g clip-path="url(#clip0_209_853)">
<path d="M4.97501 9.30018C4.39313 9.30018 4.07063 8.99205 4.04126 8.59268H4.44938C4.49001 8.80893 4.69688 8.95705 5.00626 8.95705C5.33376 8.95705 5.52501 8.8033 5.52501 8.56955C5.52501 8.38018 5.39813 8.27768 5.12688 8.21205L4.71688 8.10955C4.33563 8.01768 4.10563 7.7908 4.10563 7.4358C4.10563 6.99455 4.47876 6.6958 5.00813 6.6958C5.54126 6.6958 5.87438 6.99268 5.90563 7.37518H5.50251C5.46251 7.17518 5.28251 7.03643 5.00438 7.03643C4.70938 7.03643 4.52313 7.19018 4.52313 7.41143C4.52313 7.57455 4.64563 7.68455 4.86876 7.73768L5.27751 7.8383C5.69813 7.9408 5.94001 8.14268 5.94001 8.53205C5.94001 8.99205 5.58126 9.30018 4.97501 9.30018ZM7.11688 7.10643V9.25018H6.70126V7.10643H5.97063V6.75018H7.84938V7.10518H7.11688V7.10643Z" fill="white"/>
<path fill-rule="evenodd" clip-rule="evenodd" d="M9.90314 7.83104V8.17104C9.90314 8.87791 9.50564 9.29916 8.86501 9.29916C8.22376 9.29916 7.82501 8.87791 7.82501 8.17104V7.83104C7.82501 7.12104 8.22376 6.70166 8.86501 6.70166C9.50626 6.70166 9.90251 7.12291 9.90251 7.83104H9.90314ZM9.48189 8.17291V7.82729C9.48189 7.31041 9.21814 7.05604 8.86501 7.05604C8.50751 7.05604 8.24626 7.31041 8.24626 7.82729V8.17291C8.24626 8.69166 8.50751 8.94604 8.86501 8.94604C9.21814 8.94604 9.48189 8.69104 9.48189 8.17291ZM10.2006 6.75041H11.16C11.6725 6.75041 11.9825 7.09416 11.9825 7.55791C11.9825 8.02479 11.6694 8.36354 11.1569 8.36354H10.6163V9.24979H10.2006V6.75041ZM11.0981 8.02291C11.3875 8.02291 11.5575 7.85291 11.5575 7.55791C11.5575 7.26291 11.3875 7.09479 11.0981 7.09479H10.6144V8.02291H11.0981Z" fill="white"/>
<path fill-rule="evenodd" clip-rule="evenodd" d="M6.05813 3C5.9754 3.00002 5.89607 3.03283 5.8375 3.09125L3.09125 5.8375C3.03283 5.89607 3.00002 5.9754 3 6.05813V9.94188C3.00002 10.0246 3.03283 10.1039 3.09125 10.1625L5.8375 12.9088C5.89607 12.9672 5.9754 13 6.05813 13H9.94188C10.0246 13 10.1039 12.9672 10.1625 12.9088L12.9088 10.1625C12.9672 10.1039 13 10.0246 13 9.94188V6.05813C13 5.9754 12.9672 5.89607 12.9088 5.8375L10.1625 3.09125C10.1039 3.03283 10.0246 3.00002 9.94188 3H6.05813ZM3.625 6.1875L6.1875 3.625H9.8125L12.375 6.1875V9.8125L9.8125 12.375H6.1875L3.625 9.8125V6.1875Z" fill="white"/>
</g>
<defs>
<clipPath id="clip0_209_853">
<rect width="10" height="10" fill="white" transform="translate(3 3)"/>
</clipPath>
</defs>
</svg>
